<mxfile host="Electron" modified="2023-06-12T04:31:38.788Z" agent="Mozilla/5.0 (Windows NT 10.0; Win64; x64) AppleWebKit/537.36 (KHTML, like Gecko) draw.io/21.2.8 Chrome/112.0.5615.165 Electron/24.2.0 Safari/537.36" etag="cJsqWINVBPLBOsa4zG5Y" version="21.2.8" type="device">
  <diagram name="Page-1" id="jmbIVtjQwTWUuW6h-fAT">
    <mxGraphModel dx="1100" dy="665" grid="1" gridSize="10" guides="1" tooltips="1" connect="1" arrows="1" fold="1" page="1" pageScale="1" pageWidth="850" pageHeight="1100" math="0" shadow="0">
      <root>
        <mxCell id="0" />
        <mxCell id="1" parent="0" />
        <mxCell id="76_u4km6NrgJ4aft2lYu-1" value="Book" style="html=1;dashed=0;whiteSpace=wrap;" vertex="1" parent="1">
          <mxGeometry x="380" y="190" width="100" height="50" as="geometry" />
        </mxCell>
        <mxCell id="76_u4km6NrgJ4aft2lYu-2" value="Author" style="html=1;dashed=0;whiteSpace=wrap;" vertex="1" parent="1">
          <mxGeometry x="670" y="190" width="100" height="50" as="geometry" />
        </mxCell>
        <mxCell id="76_u4km6NrgJ4aft2lYu-3" value="Publishing Company" style="html=1;dashed=0;whiteSpace=wrap;" vertex="1" parent="1">
          <mxGeometry x="380" y="410" width="100" height="50" as="geometry" />
        </mxCell>
        <mxCell id="76_u4km6NrgJ4aft2lYu-4" value="Catalogies" style="html=1;dashed=0;whiteSpace=wrap;" vertex="1" parent="1">
          <mxGeometry x="90" y="190" width="100" height="50" as="geometry" />
        </mxCell>
        <mxCell id="76_u4km6NrgJ4aft2lYu-5" value="Book_ID" style="ellipse;whiteSpace=wrap;html=1;fontStyle=5" vertex="1" parent="1">
          <mxGeometry y="70" width="110" height="50" as="geometry" />
        </mxCell>
        <mxCell id="76_u4km6NrgJ4aft2lYu-6" value="Book_name" style="ellipse;whiteSpace=wrap;html=1;" vertex="1" parent="1">
          <mxGeometry x="370" width="110" height="50" as="geometry" />
        </mxCell>
        <mxCell id="76_u4km6NrgJ4aft2lYu-7" value="Summary_content" style="ellipse;whiteSpace=wrap;html=1;" vertex="1" parent="1">
          <mxGeometry x="480" width="110" height="50" as="geometry" />
        </mxCell>
        <mxCell id="76_u4km6NrgJ4aft2lYu-8" value="Publishing_year" style="ellipse;whiteSpace=wrap;html=1;" vertex="1" parent="1">
          <mxGeometry x="600" width="110" height="50" as="geometry" />
        </mxCell>
        <mxCell id="76_u4km6NrgJ4aft2lYu-9" value="Publication _time" style="ellipse;whiteSpace=wrap;html=1;" vertex="1" parent="1">
          <mxGeometry x="710" width="110" height="50" as="geometry" />
        </mxCell>
        <mxCell id="76_u4km6NrgJ4aft2lYu-10" value="UnitPrice" style="ellipse;whiteSpace=wrap;html=1;" vertex="1" parent="1">
          <mxGeometry x="740" y="60" width="110" height="50" as="geometry" />
        </mxCell>
        <mxCell id="76_u4km6NrgJ4aft2lYu-11" value="Company_ID" style="ellipse;whiteSpace=wrap;html=1;fontStyle=5" vertex="1" parent="1">
          <mxGeometry x="170" y="470" width="110" height="50" as="geometry" />
        </mxCell>
        <mxCell id="76_u4km6NrgJ4aft2lYu-12" value="Address" style="ellipse;whiteSpace=wrap;html=1;" vertex="1" parent="1">
          <mxGeometry x="440" y="520" width="110" height="50" as="geometry" />
        </mxCell>
        <mxCell id="76_u4km6NrgJ4aft2lYu-14" value="Quantity" style="ellipse;whiteSpace=wrap;html=1;" vertex="1" parent="1">
          <mxGeometry x="571.25" y="470" width="110" height="50" as="geometry" />
        </mxCell>
        <mxCell id="76_u4km6NrgJ4aft2lYu-15" value="Company_name" style="ellipse;whiteSpace=wrap;html=1;" vertex="1" parent="1">
          <mxGeometry x="300" y="520" width="110" height="50" as="geometry" />
        </mxCell>
        <mxCell id="76_u4km6NrgJ4aft2lYu-16" value="Company_ID*" style="ellipse;whiteSpace=wrap;html=1;" vertex="1" parent="1">
          <mxGeometry x="250" width="110" height="50" as="geometry" />
        </mxCell>
        <mxCell id="76_u4km6NrgJ4aft2lYu-17" value="Catalogi_ID" style="ellipse;whiteSpace=wrap;html=1;fontStyle=5" vertex="1" parent="1">
          <mxGeometry x="10" y="270" width="110" height="50" as="geometry" />
        </mxCell>
        <mxCell id="76_u4km6NrgJ4aft2lYu-18" value="Catalogi_name" style="ellipse;whiteSpace=wrap;html=1;" vertex="1" parent="1">
          <mxGeometry x="140" y="270" width="110" height="50" as="geometry" />
        </mxCell>
        <mxCell id="76_u4km6NrgJ4aft2lYu-19" value="Author_name" style="ellipse;whiteSpace=wrap;html=1;" vertex="1" parent="1">
          <mxGeometry x="730" y="290" width="110" height="50" as="geometry" />
        </mxCell>
        <mxCell id="76_u4km6NrgJ4aft2lYu-20" value="Author_ID" style="ellipse;whiteSpace=wrap;html=1;fontStyle=5" vertex="1" parent="1">
          <mxGeometry x="610" y="290" width="110" height="50" as="geometry" />
        </mxCell>
        <mxCell id="76_u4km6NrgJ4aft2lYu-22" value="Author_ID*" style="ellipse;whiteSpace=wrap;html=1;" vertex="1" parent="1">
          <mxGeometry x="130" width="110" height="50" as="geometry" />
        </mxCell>
        <mxCell id="76_u4km6NrgJ4aft2lYu-23" value="Have" style="rhombus;whiteSpace=wrap;html=1;" vertex="1" parent="1">
          <mxGeometry x="385" y="300" width="90" height="60" as="geometry" />
        </mxCell>
        <mxCell id="76_u4km6NrgJ4aft2lYu-24" value="Have" style="rhombus;whiteSpace=wrap;html=1;" vertex="1" parent="1">
          <mxGeometry x="250" y="185" width="90" height="60" as="geometry" />
        </mxCell>
        <mxCell id="76_u4km6NrgJ4aft2lYu-25" value="Have" style="rhombus;whiteSpace=wrap;html=1;" vertex="1" parent="1">
          <mxGeometry x="530" y="185" width="90" height="60" as="geometry" />
        </mxCell>
        <mxCell id="76_u4km6NrgJ4aft2lYu-26" value="" style="endArrow=none;html=1;rounded=0;entryX=0.5;entryY=1;entryDx=0;entryDy=0;exitX=0.5;exitY=0;exitDx=0;exitDy=0;" edge="1" parent="1" source="76_u4km6NrgJ4aft2lYu-23" target="76_u4km6NrgJ4aft2lYu-1">
          <mxGeometry width="50" height="50" relative="1" as="geometry">
            <mxPoint x="390" y="340" as="sourcePoint" />
            <mxPoint x="440" y="290" as="targetPoint" />
          </mxGeometry>
        </mxCell>
        <mxCell id="76_u4km6NrgJ4aft2lYu-27" value="" style="endArrow=none;html=1;rounded=0;entryX=1;entryY=0.5;entryDx=0;entryDy=0;exitX=0;exitY=0.5;exitDx=0;exitDy=0;" edge="1" parent="1" source="76_u4km6NrgJ4aft2lYu-2" target="76_u4km6NrgJ4aft2lYu-25">
          <mxGeometry width="50" height="50" relative="1" as="geometry">
            <mxPoint x="390" y="340" as="sourcePoint" />
            <mxPoint x="440" y="290" as="targetPoint" />
          </mxGeometry>
        </mxCell>
        <mxCell id="76_u4km6NrgJ4aft2lYu-28" value="" style="endArrow=none;html=1;rounded=0;entryX=1;entryY=0.5;entryDx=0;entryDy=0;exitX=0;exitY=0.5;exitDx=0;exitDy=0;" edge="1" parent="1" source="76_u4km6NrgJ4aft2lYu-25" target="76_u4km6NrgJ4aft2lYu-1">
          <mxGeometry width="50" height="50" relative="1" as="geometry">
            <mxPoint x="390" y="340" as="sourcePoint" />
            <mxPoint x="440" y="290" as="targetPoint" />
          </mxGeometry>
        </mxCell>
        <mxCell id="76_u4km6NrgJ4aft2lYu-29" value="" style="endArrow=none;html=1;rounded=0;entryX=0;entryY=0.5;entryDx=0;entryDy=0;exitX=1;exitY=0.5;exitDx=0;exitDy=0;" edge="1" parent="1" source="76_u4km6NrgJ4aft2lYu-4" target="76_u4km6NrgJ4aft2lYu-24">
          <mxGeometry width="50" height="50" relative="1" as="geometry">
            <mxPoint x="390" y="340" as="sourcePoint" />
            <mxPoint x="440" y="290" as="targetPoint" />
          </mxGeometry>
        </mxCell>
        <mxCell id="76_u4km6NrgJ4aft2lYu-30" value="" style="endArrow=none;html=1;rounded=0;entryX=0;entryY=0.5;entryDx=0;entryDy=0;exitX=1;exitY=0.5;exitDx=0;exitDy=0;" edge="1" parent="1" source="76_u4km6NrgJ4aft2lYu-24" target="76_u4km6NrgJ4aft2lYu-1">
          <mxGeometry width="50" height="50" relative="1" as="geometry">
            <mxPoint x="390" y="340" as="sourcePoint" />
            <mxPoint x="440" y="290" as="targetPoint" />
          </mxGeometry>
        </mxCell>
        <mxCell id="76_u4km6NrgJ4aft2lYu-31" value="" style="endArrow=none;html=1;rounded=0;exitX=0.5;exitY=1;exitDx=0;exitDy=0;entryX=0.5;entryY=0;entryDx=0;entryDy=0;" edge="1" parent="1" source="76_u4km6NrgJ4aft2lYu-23" target="76_u4km6NrgJ4aft2lYu-3">
          <mxGeometry width="50" height="50" relative="1" as="geometry">
            <mxPoint x="390" y="340" as="sourcePoint" />
            <mxPoint x="440" y="290" as="targetPoint" />
          </mxGeometry>
        </mxCell>
        <mxCell id="76_u4km6NrgJ4aft2lYu-33" value="" style="endArrow=none;html=1;rounded=0;entryX=0.75;entryY=1;entryDx=0;entryDy=0;exitX=0.5;exitY=0;exitDx=0;exitDy=0;" edge="1" parent="1" source="76_u4km6NrgJ4aft2lYu-18" target="76_u4km6NrgJ4aft2lYu-4">
          <mxGeometry width="50" height="50" relative="1" as="geometry">
            <mxPoint x="390" y="340" as="sourcePoint" />
            <mxPoint x="440" y="290" as="targetPoint" />
          </mxGeometry>
        </mxCell>
        <mxCell id="76_u4km6NrgJ4aft2lYu-34" value="" style="endArrow=none;html=1;rounded=0;entryX=0.25;entryY=1;entryDx=0;entryDy=0;exitX=0.5;exitY=0;exitDx=0;exitDy=0;" edge="1" parent="1" source="76_u4km6NrgJ4aft2lYu-17" target="76_u4km6NrgJ4aft2lYu-4">
          <mxGeometry width="50" height="50" relative="1" as="geometry">
            <mxPoint x="390" y="340" as="sourcePoint" />
            <mxPoint x="440" y="290" as="targetPoint" />
          </mxGeometry>
        </mxCell>
        <mxCell id="76_u4km6NrgJ4aft2lYu-35" value="" style="endArrow=none;html=1;rounded=0;entryX=0.75;entryY=1;entryDx=0;entryDy=0;exitX=0.5;exitY=0;exitDx=0;exitDy=0;" edge="1" parent="1" source="76_u4km6NrgJ4aft2lYu-19" target="76_u4km6NrgJ4aft2lYu-2">
          <mxGeometry width="50" height="50" relative="1" as="geometry">
            <mxPoint x="390" y="340" as="sourcePoint" />
            <mxPoint x="440" y="290" as="targetPoint" />
          </mxGeometry>
        </mxCell>
        <mxCell id="76_u4km6NrgJ4aft2lYu-36" value="" style="endArrow=none;html=1;rounded=0;entryX=0.25;entryY=1;entryDx=0;entryDy=0;exitX=0.5;exitY=0;exitDx=0;exitDy=0;" edge="1" parent="1" source="76_u4km6NrgJ4aft2lYu-20" target="76_u4km6NrgJ4aft2lYu-2">
          <mxGeometry width="50" height="50" relative="1" as="geometry">
            <mxPoint x="390" y="340" as="sourcePoint" />
            <mxPoint x="440" y="290" as="targetPoint" />
          </mxGeometry>
        </mxCell>
        <mxCell id="76_u4km6NrgJ4aft2lYu-37" value="" style="endArrow=none;html=1;rounded=0;entryX=0;entryY=0;entryDx=0;entryDy=0;exitX=0.5;exitY=1;exitDx=0;exitDy=0;" edge="1" parent="1" source="76_u4km6NrgJ4aft2lYu-5" target="76_u4km6NrgJ4aft2lYu-1">
          <mxGeometry width="50" height="50" relative="1" as="geometry">
            <mxPoint x="390" y="340" as="sourcePoint" />
            <mxPoint x="440" y="290" as="targetPoint" />
          </mxGeometry>
        </mxCell>
        <mxCell id="76_u4km6NrgJ4aft2lYu-39" value="" style="endArrow=none;html=1;rounded=0;entryX=0.045;entryY=0.362;entryDx=0;entryDy=0;entryPerimeter=0;exitX=1;exitY=1;exitDx=0;exitDy=0;" edge="1" parent="1" source="76_u4km6NrgJ4aft2lYu-3" target="76_u4km6NrgJ4aft2lYu-14">
          <mxGeometry width="50" height="50" relative="1" as="geometry">
            <mxPoint x="500" y="460" as="sourcePoint" />
            <mxPoint x="440" y="400" as="targetPoint" />
          </mxGeometry>
        </mxCell>
        <mxCell id="76_u4km6NrgJ4aft2lYu-40" value="" style="endArrow=none;html=1;rounded=0;exitX=0.5;exitY=1;exitDx=0;exitDy=0;entryX=0.5;entryY=0;entryDx=0;entryDy=0;" edge="1" parent="1" source="76_u4km6NrgJ4aft2lYu-3" target="76_u4km6NrgJ4aft2lYu-12">
          <mxGeometry width="50" height="50" relative="1" as="geometry">
            <mxPoint x="390" y="450" as="sourcePoint" />
            <mxPoint x="440" y="400" as="targetPoint" />
          </mxGeometry>
        </mxCell>
        <mxCell id="76_u4km6NrgJ4aft2lYu-41" value="" style="endArrow=none;html=1;rounded=0;exitX=0.5;exitY=0;exitDx=0;exitDy=0;entryX=0.25;entryY=1;entryDx=0;entryDy=0;" edge="1" parent="1" source="76_u4km6NrgJ4aft2lYu-15" target="76_u4km6NrgJ4aft2lYu-3">
          <mxGeometry width="50" height="50" relative="1" as="geometry">
            <mxPoint x="390" y="450" as="sourcePoint" />
            <mxPoint x="440" y="400" as="targetPoint" />
          </mxGeometry>
        </mxCell>
        <mxCell id="76_u4km6NrgJ4aft2lYu-42" value="" style="endArrow=none;html=1;rounded=0;exitX=1;exitY=0.5;exitDx=0;exitDy=0;entryX=0;entryY=1;entryDx=0;entryDy=0;" edge="1" parent="1" source="76_u4km6NrgJ4aft2lYu-11" target="76_u4km6NrgJ4aft2lYu-3">
          <mxGeometry width="50" height="50" relative="1" as="geometry">
            <mxPoint x="390" y="450" as="sourcePoint" />
            <mxPoint x="440" y="400" as="targetPoint" />
          </mxGeometry>
        </mxCell>
        <mxCell id="76_u4km6NrgJ4aft2lYu-44" value="" style="endArrow=none;html=1;rounded=0;entryX=0.25;entryY=0;entryDx=0;entryDy=0;exitX=0.5;exitY=1;exitDx=0;exitDy=0;" edge="1" parent="1" source="76_u4km6NrgJ4aft2lYu-22" target="76_u4km6NrgJ4aft2lYu-1">
          <mxGeometry width="50" height="50" relative="1" as="geometry">
            <mxPoint x="125" y="110" as="sourcePoint" />
            <mxPoint x="390" y="200" as="targetPoint" />
          </mxGeometry>
        </mxCell>
        <mxCell id="76_u4km6NrgJ4aft2lYu-45" value="" style="endArrow=none;html=1;rounded=0;entryX=0.356;entryY=0.009;entryDx=0;entryDy=0;exitX=0.5;exitY=1;exitDx=0;exitDy=0;entryPerimeter=0;" edge="1" parent="1" source="76_u4km6NrgJ4aft2lYu-16" target="76_u4km6NrgJ4aft2lYu-1">
          <mxGeometry width="50" height="50" relative="1" as="geometry">
            <mxPoint x="195" y="60" as="sourcePoint" />
            <mxPoint x="415" y="200" as="targetPoint" />
          </mxGeometry>
        </mxCell>
        <mxCell id="76_u4km6NrgJ4aft2lYu-46" value="" style="endArrow=none;html=1;rounded=0;entryX=0.5;entryY=0;entryDx=0;entryDy=0;exitX=0.5;exitY=1;exitDx=0;exitDy=0;" edge="1" parent="1" source="76_u4km6NrgJ4aft2lYu-6" target="76_u4km6NrgJ4aft2lYu-1">
          <mxGeometry width="50" height="50" relative="1" as="geometry">
            <mxPoint x="315" y="60" as="sourcePoint" />
            <mxPoint x="415" y="200" as="targetPoint" />
          </mxGeometry>
        </mxCell>
        <mxCell id="76_u4km6NrgJ4aft2lYu-47" value="" style="endArrow=none;html=1;rounded=0;exitX=0.5;exitY=1;exitDx=0;exitDy=0;" edge="1" parent="1" source="76_u4km6NrgJ4aft2lYu-7">
          <mxGeometry width="50" height="50" relative="1" as="geometry">
            <mxPoint x="435" y="60" as="sourcePoint" />
            <mxPoint x="440" y="190" as="targetPoint" />
          </mxGeometry>
        </mxCell>
        <mxCell id="76_u4km6NrgJ4aft2lYu-48" value="" style="endArrow=none;html=1;rounded=0;exitX=0;exitY=1;exitDx=0;exitDy=0;entryX=0.75;entryY=0;entryDx=0;entryDy=0;" edge="1" parent="1" source="76_u4km6NrgJ4aft2lYu-8" target="76_u4km6NrgJ4aft2lYu-1">
          <mxGeometry width="50" height="50" relative="1" as="geometry">
            <mxPoint x="545" y="60" as="sourcePoint" />
            <mxPoint x="450" y="200" as="targetPoint" />
          </mxGeometry>
        </mxCell>
        <mxCell id="76_u4km6NrgJ4aft2lYu-49" value="" style="endArrow=none;html=1;rounded=0;exitX=0;exitY=1;exitDx=0;exitDy=0;entryX=1;entryY=0;entryDx=0;entryDy=0;" edge="1" parent="1" source="76_u4km6NrgJ4aft2lYu-9" target="76_u4km6NrgJ4aft2lYu-1">
          <mxGeometry width="50" height="50" relative="1" as="geometry">
            <mxPoint x="555" y="70" as="sourcePoint" />
            <mxPoint x="470" y="190" as="targetPoint" />
          </mxGeometry>
        </mxCell>
        <mxCell id="76_u4km6NrgJ4aft2lYu-50" value="" style="endArrow=none;html=1;rounded=0;exitX=0;exitY=1;exitDx=0;exitDy=0;entryX=1;entryY=0.25;entryDx=0;entryDy=0;" edge="1" parent="1" source="76_u4km6NrgJ4aft2lYu-10" target="76_u4km6NrgJ4aft2lYu-1">
          <mxGeometry width="50" height="50" relative="1" as="geometry">
            <mxPoint x="565" y="80" as="sourcePoint" />
            <mxPoint x="470" y="220" as="targetPoint" />
          </mxGeometry>
        </mxCell>
        <mxCell id="76_u4km6NrgJ4aft2lYu-51" value="Book" style="html=1;dashed=0;whiteSpace=wrap;" vertex="1" parent="1">
          <mxGeometry x="206.25" y="620" width="100" height="50" as="geometry" />
        </mxCell>
        <mxCell id="76_u4km6NrgJ4aft2lYu-52" value="Author" style="html=1;dashed=0;whiteSpace=wrap;" vertex="1" parent="1">
          <mxGeometry x="520" y="620" width="100" height="50" as="geometry" />
        </mxCell>
        <mxCell id="76_u4km6NrgJ4aft2lYu-55" value="Author_Book" style="html=1;dashed=0;whiteSpace=wrap;" vertex="1" parent="1">
          <mxGeometry x="366.25" y="740" width="100" height="50" as="geometry" />
        </mxCell>
        <mxCell id="76_u4km6NrgJ4aft2lYu-56" value="n" style="text;html=1;align=center;verticalAlign=middle;resizable=0;points=[];autosize=1;strokeColor=none;fillColor=none;" vertex="1" parent="1">
          <mxGeometry x="490" y="190" width="30" height="30" as="geometry" />
        </mxCell>
        <mxCell id="76_u4km6NrgJ4aft2lYu-57" value="n" style="text;html=1;align=center;verticalAlign=middle;resizable=0;points=[];autosize=1;strokeColor=none;fillColor=none;" vertex="1" parent="1">
          <mxGeometry x="640" y="190" width="30" height="30" as="geometry" />
        </mxCell>
        <mxCell id="76_u4km6NrgJ4aft2lYu-58" value="1" style="text;html=1;align=center;verticalAlign=middle;resizable=0;points=[];autosize=1;strokeColor=none;fillColor=none;" vertex="1" parent="1">
          <mxGeometry x="190" y="190" width="30" height="30" as="geometry" />
        </mxCell>
        <mxCell id="76_u4km6NrgJ4aft2lYu-60" value="n" style="text;html=1;align=center;verticalAlign=middle;resizable=0;points=[];autosize=1;strokeColor=none;fillColor=none;" vertex="1" parent="1">
          <mxGeometry x="355" y="190" width="30" height="30" as="geometry" />
        </mxCell>
        <mxCell id="76_u4km6NrgJ4aft2lYu-61" value="1" style="text;html=1;align=center;verticalAlign=middle;resizable=0;points=[];autosize=1;strokeColor=none;fillColor=none;" vertex="1" parent="1">
          <mxGeometry x="410" y="380" width="30" height="30" as="geometry" />
        </mxCell>
        <mxCell id="76_u4km6NrgJ4aft2lYu-62" value="n" style="text;html=1;align=center;verticalAlign=middle;resizable=0;points=[];autosize=1;strokeColor=none;fillColor=none;" vertex="1" parent="1">
          <mxGeometry x="400" y="240" width="30" height="30" as="geometry" />
        </mxCell>
        <mxCell id="76_u4km6NrgJ4aft2lYu-63" value="" style="endArrow=none;html=1;rounded=0;exitX=0.5;exitY=1;exitDx=0;exitDy=0;entryX=0;entryY=0.5;entryDx=0;entryDy=0;" edge="1" parent="1" source="76_u4km6NrgJ4aft2lYu-51" target="76_u4km6NrgJ4aft2lYu-55">
          <mxGeometry width="50" height="50" relative="1" as="geometry">
            <mxPoint x="536.25" y="620" as="sourcePoint" />
            <mxPoint x="261.25" y="790" as="targetPoint" />
            <Array as="points">
              <mxPoint x="256.25" y="765" />
            </Array>
          </mxGeometry>
        </mxCell>
        <mxCell id="76_u4km6NrgJ4aft2lYu-65" value="" style="endArrow=none;html=1;rounded=0;entryX=0.5;entryY=1;entryDx=0;entryDy=0;exitX=1;exitY=0.5;exitDx=0;exitDy=0;" edge="1" parent="1" source="76_u4km6NrgJ4aft2lYu-55" target="76_u4km6NrgJ4aft2lYu-52">
          <mxGeometry width="50" height="50" relative="1" as="geometry">
            <mxPoint x="571.25" y="780" as="sourcePoint" />
            <mxPoint x="586.25" y="570" as="targetPoint" />
            <Array as="points">
              <mxPoint x="571.25" y="765" />
            </Array>
          </mxGeometry>
        </mxCell>
        <mxCell id="76_u4km6NrgJ4aft2lYu-67" value="Author_ID*" style="ellipse;whiteSpace=wrap;html=1;fontStyle=0" vertex="1" parent="1">
          <mxGeometry x="286.25" y="830" width="110" height="50" as="geometry" />
        </mxCell>
        <mxCell id="76_u4km6NrgJ4aft2lYu-68" value="Book_ID*" style="ellipse;whiteSpace=wrap;html=1;fontStyle=0" vertex="1" parent="1">
          <mxGeometry x="431.25" y="830" width="110" height="50" as="geometry" />
        </mxCell>
        <mxCell id="76_u4km6NrgJ4aft2lYu-69" value="1" style="text;html=1;align=center;verticalAlign=middle;resizable=0;points=[];autosize=1;strokeColor=none;fillColor=none;" vertex="1" parent="1">
          <mxGeometry x="256.25" y="670" width="30" height="30" as="geometry" />
        </mxCell>
        <mxCell id="76_u4km6NrgJ4aft2lYu-70" value="n" style="text;html=1;align=center;verticalAlign=middle;resizable=0;points=[];autosize=1;strokeColor=none;fillColor=none;" vertex="1" parent="1">
          <mxGeometry x="336.25" y="740" width="30" height="30" as="geometry" />
        </mxCell>
        <mxCell id="76_u4km6NrgJ4aft2lYu-71" value="" style="endArrow=none;html=1;rounded=0;exitX=0.75;exitY=1;exitDx=0;exitDy=0;entryX=0.5;entryY=0;entryDx=0;entryDy=0;" edge="1" parent="1" source="76_u4km6NrgJ4aft2lYu-55" target="76_u4km6NrgJ4aft2lYu-68">
          <mxGeometry width="50" height="50" relative="1" as="geometry">
            <mxPoint x="526.25" y="710" as="sourcePoint" />
            <mxPoint x="576.25" y="660" as="targetPoint" />
          </mxGeometry>
        </mxCell>
        <mxCell id="76_u4km6NrgJ4aft2lYu-72" value="" style="endArrow=none;html=1;rounded=0;exitX=0.5;exitY=0;exitDx=0;exitDy=0;entryX=0.25;entryY=1;entryDx=0;entryDy=0;" edge="1" parent="1" source="76_u4km6NrgJ4aft2lYu-67" target="76_u4km6NrgJ4aft2lYu-55">
          <mxGeometry width="50" height="50" relative="1" as="geometry">
            <mxPoint x="526.25" y="710" as="sourcePoint" />
            <mxPoint x="576.25" y="660" as="targetPoint" />
          </mxGeometry>
        </mxCell>
        <mxCell id="76_u4km6NrgJ4aft2lYu-73" value="n" style="text;html=1;align=center;verticalAlign=middle;resizable=0;points=[];autosize=1;strokeColor=none;fillColor=none;" vertex="1" parent="1">
          <mxGeometry x="541.25" y="670" width="30" height="30" as="geometry" />
        </mxCell>
        <mxCell id="76_u4km6NrgJ4aft2lYu-74" value="1" style="text;html=1;align=center;verticalAlign=middle;resizable=0;points=[];autosize=1;strokeColor=none;fillColor=none;" vertex="1" parent="1">
          <mxGeometry x="460" y="740" width="30" height="30" as="geometry" />
        </mxCell>
        <mxCell id="76_u4km6NrgJ4aft2lYu-75" value="" style="shape=table;startSize=0;container=1;collapsible=0;childLayout=tableLayout;" vertex="1" parent="1">
          <mxGeometry y="1000" width="850" height="280" as="geometry" />
        </mxCell>
        <mxCell id="76_u4km6NrgJ4aft2lYu-76" value="" style="shape=tableRow;horizontal=0;startSize=0;swimlaneHead=0;swimlaneBody=0;strokeColor=inherit;top=0;left=0;bottom=0;right=0;collapsible=0;dropTarget=0;fillColor=none;points=[[0,0.5],[1,0.5]];portConstraint=eastwest;" vertex="1" parent="76_u4km6NrgJ4aft2lYu-75">
          <mxGeometry width="850" height="40" as="geometry" />
        </mxCell>
        <mxCell id="76_u4km6NrgJ4aft2lYu-77" value="Column Name" style="shape=partialRectangle;html=1;whiteSpace=wrap;connectable=0;strokeColor=inherit;overflow=hidden;fillColor=none;top=0;left=0;bottom=0;right=0;pointerEvents=1;fontStyle=1" vertex="1" parent="76_u4km6NrgJ4aft2lYu-76">
          <mxGeometry width="84" height="40" as="geometry">
            <mxRectangle width="84" height="40" as="alternateBounds" />
          </mxGeometry>
        </mxCell>
        <mxCell id="76_u4km6NrgJ4aft2lYu-78" value="Book_ID" style="shape=partialRectangle;html=1;whiteSpace=wrap;connectable=0;strokeColor=inherit;overflow=hidden;fillColor=none;top=0;left=0;bottom=0;right=0;pointerEvents=1;fontStyle=4" vertex="1" parent="76_u4km6NrgJ4aft2lYu-76">
          <mxGeometry x="84" width="86" height="40" as="geometry">
            <mxRectangle width="86" height="40" as="alternateBounds" />
          </mxGeometry>
        </mxCell>
        <mxCell id="76_u4km6NrgJ4aft2lYu-79" value="Author_ID*" style="shape=partialRectangle;html=1;whiteSpace=wrap;connectable=0;strokeColor=inherit;overflow=hidden;fillColor=none;top=0;left=0;bottom=0;right=0;pointerEvents=1;" vertex="1" parent="76_u4km6NrgJ4aft2lYu-76">
          <mxGeometry x="170" width="84" height="40" as="geometry">
            <mxRectangle width="84" height="40" as="alternateBounds" />
          </mxGeometry>
        </mxCell>
        <mxCell id="76_u4km6NrgJ4aft2lYu-80" value="Company_ID*" style="shape=partialRectangle;html=1;whiteSpace=wrap;connectable=0;strokeColor=inherit;overflow=hidden;fillColor=none;top=0;left=0;bottom=0;right=0;pointerEvents=1;" vertex="1" parent="76_u4km6NrgJ4aft2lYu-76">
          <mxGeometry x="254" width="85" height="40" as="geometry">
            <mxRectangle width="85" height="40" as="alternateBounds" />
          </mxGeometry>
        </mxCell>
        <mxCell id="76_u4km6NrgJ4aft2lYu-435" value="Catalogi_ID*" style="shape=partialRectangle;html=1;whiteSpace=wrap;connectable=0;strokeColor=inherit;overflow=hidden;fillColor=none;top=0;left=0;bottom=0;right=0;pointerEvents=1;" vertex="1" parent="76_u4km6NrgJ4aft2lYu-76">
          <mxGeometry x="339" width="86" height="40" as="geometry">
            <mxRectangle width="86" height="40" as="alternateBounds" />
          </mxGeometry>
        </mxCell>
        <mxCell id="76_u4km6NrgJ4aft2lYu-81" value="Book_name" style="shape=partialRectangle;html=1;whiteSpace=wrap;connectable=0;strokeColor=inherit;overflow=hidden;fillColor=none;top=0;left=0;bottom=0;right=0;pointerEvents=1;" vertex="1" parent="76_u4km6NrgJ4aft2lYu-76">
          <mxGeometry x="425" width="86" height="40" as="geometry">
            <mxRectangle width="86" height="40" as="alternateBounds" />
          </mxGeometry>
        </mxCell>
        <mxCell id="76_u4km6NrgJ4aft2lYu-82" value="Summary_content" style="shape=partialRectangle;html=1;whiteSpace=wrap;connectable=0;strokeColor=inherit;overflow=hidden;fillColor=none;top=0;left=0;bottom=0;right=0;pointerEvents=1;" vertex="1" parent="76_u4km6NrgJ4aft2lYu-76">
          <mxGeometry x="511" width="85" height="40" as="geometry">
            <mxRectangle width="85" height="40" as="alternateBounds" />
          </mxGeometry>
        </mxCell>
        <mxCell id="76_u4km6NrgJ4aft2lYu-126" value="Publishing_year" style="shape=partialRectangle;html=1;whiteSpace=wrap;connectable=0;strokeColor=inherit;overflow=hidden;fillColor=none;top=0;left=0;bottom=0;right=0;pointerEvents=1;" vertex="1" parent="76_u4km6NrgJ4aft2lYu-76">
          <mxGeometry x="596" width="85" height="40" as="geometry">
            <mxRectangle width="85" height="40" as="alternateBounds" />
          </mxGeometry>
        </mxCell>
        <mxCell id="76_u4km6NrgJ4aft2lYu-133" value="Publication _time" style="shape=partialRectangle;html=1;whiteSpace=wrap;connectable=0;strokeColor=inherit;overflow=hidden;fillColor=none;top=0;left=0;bottom=0;right=0;pointerEvents=1;" vertex="1" parent="76_u4km6NrgJ4aft2lYu-76">
          <mxGeometry x="681" width="85" height="40" as="geometry">
            <mxRectangle width="85" height="40" as="alternateBounds" />
          </mxGeometry>
        </mxCell>
        <mxCell id="76_u4km6NrgJ4aft2lYu-140" value="UnitPrice" style="shape=partialRectangle;html=1;whiteSpace=wrap;connectable=0;strokeColor=inherit;overflow=hidden;fillColor=none;top=0;left=0;bottom=0;right=0;pointerEvents=1;" vertex="1" parent="76_u4km6NrgJ4aft2lYu-76">
          <mxGeometry x="766" width="84" height="40" as="geometry">
            <mxRectangle width="84" height="40" as="alternateBounds" />
          </mxGeometry>
        </mxCell>
        <mxCell id="76_u4km6NrgJ4aft2lYu-83" value="" style="shape=tableRow;horizontal=0;startSize=0;swimlaneHead=0;swimlaneBody=0;strokeColor=inherit;top=0;left=0;bottom=0;right=0;collapsible=0;dropTarget=0;fillColor=none;points=[[0,0.5],[1,0.5]];portConstraint=eastwest;" vertex="1" parent="76_u4km6NrgJ4aft2lYu-75">
          <mxGeometry y="40" width="850" height="40" as="geometry" />
        </mxCell>
        <mxCell id="76_u4km6NrgJ4aft2lYu-84" value="Key Type" style="shape=partialRectangle;html=1;whiteSpace=wrap;connectable=0;strokeColor=inherit;overflow=hidden;fillColor=none;top=0;left=0;bottom=0;right=0;pointerEvents=1;fontStyle=1" vertex="1" parent="76_u4km6NrgJ4aft2lYu-83">
          <mxGeometry width="84" height="40" as="geometry">
            <mxRectangle width="84" height="40" as="alternateBounds" />
          </mxGeometry>
        </mxCell>
        <mxCell id="76_u4km6NrgJ4aft2lYu-85" value="PK" style="shape=partialRectangle;html=1;whiteSpace=wrap;connectable=0;strokeColor=inherit;overflow=hidden;fillColor=none;top=0;left=0;bottom=0;right=0;pointerEvents=1;" vertex="1" parent="76_u4km6NrgJ4aft2lYu-83">
          <mxGeometry x="84" width="86" height="40" as="geometry">
            <mxRectangle width="86" height="40" as="alternateBounds" />
          </mxGeometry>
        </mxCell>
        <mxCell id="76_u4km6NrgJ4aft2lYu-86" value="FK" style="shape=partialRectangle;html=1;whiteSpace=wrap;connectable=0;strokeColor=inherit;overflow=hidden;fillColor=none;top=0;left=0;bottom=0;right=0;pointerEvents=1;" vertex="1" parent="76_u4km6NrgJ4aft2lYu-83">
          <mxGeometry x="170" width="84" height="40" as="geometry">
            <mxRectangle width="84" height="40" as="alternateBounds" />
          </mxGeometry>
        </mxCell>
        <mxCell id="76_u4km6NrgJ4aft2lYu-87" value="FK" style="shape=partialRectangle;html=1;whiteSpace=wrap;connectable=0;strokeColor=inherit;overflow=hidden;fillColor=none;top=0;left=0;bottom=0;right=0;pointerEvents=1;" vertex="1" parent="76_u4km6NrgJ4aft2lYu-83">
          <mxGeometry x="254" width="85" height="40" as="geometry">
            <mxRectangle width="85" height="40" as="alternateBounds" />
          </mxGeometry>
        </mxCell>
        <mxCell id="76_u4km6NrgJ4aft2lYu-436" value="FK" style="shape=partialRectangle;html=1;whiteSpace=wrap;connectable=0;strokeColor=inherit;overflow=hidden;fillColor=none;top=0;left=0;bottom=0;right=0;pointerEvents=1;" vertex="1" parent="76_u4km6NrgJ4aft2lYu-83">
          <mxGeometry x="339" width="86" height="40" as="geometry">
            <mxRectangle width="86" height="40" as="alternateBounds" />
          </mxGeometry>
        </mxCell>
        <mxCell id="76_u4km6NrgJ4aft2lYu-88" style="shape=partialRectangle;html=1;whiteSpace=wrap;connectable=0;strokeColor=inherit;overflow=hidden;fillColor=none;top=0;left=0;bottom=0;right=0;pointerEvents=1;" vertex="1" parent="76_u4km6NrgJ4aft2lYu-83">
          <mxGeometry x="425" width="86" height="40" as="geometry">
            <mxRectangle width="86" height="40" as="alternateBounds" />
          </mxGeometry>
        </mxCell>
        <mxCell id="76_u4km6NrgJ4aft2lYu-89" style="shape=partialRectangle;html=1;whiteSpace=wrap;connectable=0;strokeColor=inherit;overflow=hidden;fillColor=none;top=0;left=0;bottom=0;right=0;pointerEvents=1;" vertex="1" parent="76_u4km6NrgJ4aft2lYu-83">
          <mxGeometry x="511" width="85" height="40" as="geometry">
            <mxRectangle width="85" height="40" as="alternateBounds" />
          </mxGeometry>
        </mxCell>
        <mxCell id="76_u4km6NrgJ4aft2lYu-127" style="shape=partialRectangle;html=1;whiteSpace=wrap;connectable=0;strokeColor=inherit;overflow=hidden;fillColor=none;top=0;left=0;bottom=0;right=0;pointerEvents=1;" vertex="1" parent="76_u4km6NrgJ4aft2lYu-83">
          <mxGeometry x="596" width="85" height="40" as="geometry">
            <mxRectangle width="85" height="40" as="alternateBounds" />
          </mxGeometry>
        </mxCell>
        <mxCell id="76_u4km6NrgJ4aft2lYu-134" style="shape=partialRectangle;html=1;whiteSpace=wrap;connectable=0;strokeColor=inherit;overflow=hidden;fillColor=none;top=0;left=0;bottom=0;right=0;pointerEvents=1;" vertex="1" parent="76_u4km6NrgJ4aft2lYu-83">
          <mxGeometry x="681" width="85" height="40" as="geometry">
            <mxRectangle width="85" height="40" as="alternateBounds" />
          </mxGeometry>
        </mxCell>
        <mxCell id="76_u4km6NrgJ4aft2lYu-141" style="shape=partialRectangle;html=1;whiteSpace=wrap;connectable=0;strokeColor=inherit;overflow=hidden;fillColor=none;top=0;left=0;bottom=0;right=0;pointerEvents=1;" vertex="1" parent="76_u4km6NrgJ4aft2lYu-83">
          <mxGeometry x="766" width="84" height="40" as="geometry">
            <mxRectangle width="84" height="40" as="alternateBounds" />
          </mxGeometry>
        </mxCell>
        <mxCell id="76_u4km6NrgJ4aft2lYu-90" value="" style="shape=tableRow;horizontal=0;startSize=0;swimlaneHead=0;swimlaneBody=0;strokeColor=inherit;top=0;left=0;bottom=0;right=0;collapsible=0;dropTarget=0;fillColor=none;points=[[0,0.5],[1,0.5]];portConstraint=eastwest;" vertex="1" parent="76_u4km6NrgJ4aft2lYu-75">
          <mxGeometry y="80" width="850" height="40" as="geometry" />
        </mxCell>
        <mxCell id="76_u4km6NrgJ4aft2lYu-91" value="Null/Unique" style="shape=partialRectangle;html=1;whiteSpace=wrap;connectable=0;strokeColor=inherit;overflow=hidden;fillColor=none;top=0;left=0;bottom=0;right=0;pointerEvents=1;fontStyle=1" vertex="1" parent="76_u4km6NrgJ4aft2lYu-90">
          <mxGeometry width="84" height="40" as="geometry">
            <mxRectangle width="84" height="40" as="alternateBounds" />
          </mxGeometry>
        </mxCell>
        <mxCell id="76_u4km6NrgJ4aft2lYu-92" value="NN, U" style="shape=partialRectangle;html=1;whiteSpace=wrap;connectable=0;strokeColor=inherit;overflow=hidden;fillColor=none;top=0;left=0;bottom=0;right=0;pointerEvents=1;" vertex="1" parent="76_u4km6NrgJ4aft2lYu-90">
          <mxGeometry x="84" width="86" height="40" as="geometry">
            <mxRectangle width="86" height="40" as="alternateBounds" />
          </mxGeometry>
        </mxCell>
        <mxCell id="76_u4km6NrgJ4aft2lYu-93" value="NN" style="shape=partialRectangle;html=1;whiteSpace=wrap;connectable=0;strokeColor=inherit;overflow=hidden;fillColor=none;top=0;left=0;bottom=0;right=0;pointerEvents=1;" vertex="1" parent="76_u4km6NrgJ4aft2lYu-90">
          <mxGeometry x="170" width="84" height="40" as="geometry">
            <mxRectangle width="84" height="40" as="alternateBounds" />
          </mxGeometry>
        </mxCell>
        <mxCell id="76_u4km6NrgJ4aft2lYu-94" value="NN" style="shape=partialRectangle;html=1;whiteSpace=wrap;connectable=0;strokeColor=inherit;overflow=hidden;fillColor=none;top=0;left=0;bottom=0;right=0;pointerEvents=1;" vertex="1" parent="76_u4km6NrgJ4aft2lYu-90">
          <mxGeometry x="254" width="85" height="40" as="geometry">
            <mxRectangle width="85" height="40" as="alternateBounds" />
          </mxGeometry>
        </mxCell>
        <mxCell id="76_u4km6NrgJ4aft2lYu-437" value="NN" style="shape=partialRectangle;html=1;whiteSpace=wrap;connectable=0;strokeColor=inherit;overflow=hidden;fillColor=none;top=0;left=0;bottom=0;right=0;pointerEvents=1;" vertex="1" parent="76_u4km6NrgJ4aft2lYu-90">
          <mxGeometry x="339" width="86" height="40" as="geometry">
            <mxRectangle width="86" height="40" as="alternateBounds" />
          </mxGeometry>
        </mxCell>
        <mxCell id="76_u4km6NrgJ4aft2lYu-95" value="NN" style="shape=partialRectangle;html=1;whiteSpace=wrap;connectable=0;strokeColor=inherit;overflow=hidden;fillColor=none;top=0;left=0;bottom=0;right=0;pointerEvents=1;" vertex="1" parent="76_u4km6NrgJ4aft2lYu-90">
          <mxGeometry x="425" width="86" height="40" as="geometry">
            <mxRectangle width="86" height="40" as="alternateBounds" />
          </mxGeometry>
        </mxCell>
        <mxCell id="76_u4km6NrgJ4aft2lYu-96" value="NN" style="shape=partialRectangle;html=1;whiteSpace=wrap;connectable=0;strokeColor=inherit;overflow=hidden;fillColor=none;top=0;left=0;bottom=0;right=0;pointerEvents=1;" vertex="1" parent="76_u4km6NrgJ4aft2lYu-90">
          <mxGeometry x="511" width="85" height="40" as="geometry">
            <mxRectangle width="85" height="40" as="alternateBounds" />
          </mxGeometry>
        </mxCell>
        <mxCell id="76_u4km6NrgJ4aft2lYu-128" value="NN" style="shape=partialRectangle;html=1;whiteSpace=wrap;connectable=0;strokeColor=inherit;overflow=hidden;fillColor=none;top=0;left=0;bottom=0;right=0;pointerEvents=1;" vertex="1" parent="76_u4km6NrgJ4aft2lYu-90">
          <mxGeometry x="596" width="85" height="40" as="geometry">
            <mxRectangle width="85" height="40" as="alternateBounds" />
          </mxGeometry>
        </mxCell>
        <mxCell id="76_u4km6NrgJ4aft2lYu-135" value="NN" style="shape=partialRectangle;html=1;whiteSpace=wrap;connectable=0;strokeColor=inherit;overflow=hidden;fillColor=none;top=0;left=0;bottom=0;right=0;pointerEvents=1;" vertex="1" parent="76_u4km6NrgJ4aft2lYu-90">
          <mxGeometry x="681" width="85" height="40" as="geometry">
            <mxRectangle width="85" height="40" as="alternateBounds" />
          </mxGeometry>
        </mxCell>
        <mxCell id="76_u4km6NrgJ4aft2lYu-142" value="NN" style="shape=partialRectangle;html=1;whiteSpace=wrap;connectable=0;strokeColor=inherit;overflow=hidden;fillColor=none;top=0;left=0;bottom=0;right=0;pointerEvents=1;" vertex="1" parent="76_u4km6NrgJ4aft2lYu-90">
          <mxGeometry x="766" width="84" height="40" as="geometry">
            <mxRectangle width="84" height="40" as="alternateBounds" />
          </mxGeometry>
        </mxCell>
        <mxCell id="76_u4km6NrgJ4aft2lYu-97" value="" style="shape=tableRow;horizontal=0;startSize=0;swimlaneHead=0;swimlaneBody=0;strokeColor=inherit;top=0;left=0;bottom=0;right=0;collapsible=0;dropTarget=0;fillColor=none;points=[[0,0.5],[1,0.5]];portConstraint=eastwest;" vertex="1" parent="76_u4km6NrgJ4aft2lYu-75">
          <mxGeometry y="120" width="850" height="40" as="geometry" />
        </mxCell>
        <mxCell id="76_u4km6NrgJ4aft2lYu-98" value="FK Table" style="shape=partialRectangle;html=1;whiteSpace=wrap;connectable=0;strokeColor=inherit;overflow=hidden;fillColor=none;top=0;left=0;bottom=0;right=0;pointerEvents=1;fontStyle=1" vertex="1" parent="76_u4km6NrgJ4aft2lYu-97">
          <mxGeometry width="84" height="40" as="geometry">
            <mxRectangle width="84" height="40" as="alternateBounds" />
          </mxGeometry>
        </mxCell>
        <mxCell id="76_u4km6NrgJ4aft2lYu-99" value="" style="shape=partialRectangle;html=1;whiteSpace=wrap;connectable=0;strokeColor=inherit;overflow=hidden;fillColor=none;top=0;left=0;bottom=0;right=0;pointerEvents=1;" vertex="1" parent="76_u4km6NrgJ4aft2lYu-97">
          <mxGeometry x="84" width="86" height="40" as="geometry">
            <mxRectangle width="86" height="40" as="alternateBounds" />
          </mxGeometry>
        </mxCell>
        <mxCell id="76_u4km6NrgJ4aft2lYu-100" value="" style="shape=partialRectangle;html=1;whiteSpace=wrap;connectable=0;strokeColor=inherit;overflow=hidden;fillColor=none;top=0;left=0;bottom=0;right=0;pointerEvents=1;" vertex="1" parent="76_u4km6NrgJ4aft2lYu-97">
          <mxGeometry x="170" width="84" height="40" as="geometry">
            <mxRectangle width="84" height="40" as="alternateBounds" />
          </mxGeometry>
        </mxCell>
        <mxCell id="76_u4km6NrgJ4aft2lYu-101" style="shape=partialRectangle;html=1;whiteSpace=wrap;connectable=0;strokeColor=inherit;overflow=hidden;fillColor=none;top=0;left=0;bottom=0;right=0;pointerEvents=1;" vertex="1" parent="76_u4km6NrgJ4aft2lYu-97">
          <mxGeometry x="254" width="85" height="40" as="geometry">
            <mxRectangle width="85" height="40" as="alternateBounds" />
          </mxGeometry>
        </mxCell>
        <mxCell id="76_u4km6NrgJ4aft2lYu-438" style="shape=partialRectangle;html=1;whiteSpace=wrap;connectable=0;strokeColor=inherit;overflow=hidden;fillColor=none;top=0;left=0;bottom=0;right=0;pointerEvents=1;" vertex="1" parent="76_u4km6NrgJ4aft2lYu-97">
          <mxGeometry x="339" width="86" height="40" as="geometry">
            <mxRectangle width="86" height="40" as="alternateBounds" />
          </mxGeometry>
        </mxCell>
        <mxCell id="76_u4km6NrgJ4aft2lYu-102" style="shape=partialRectangle;html=1;whiteSpace=wrap;connectable=0;strokeColor=inherit;overflow=hidden;fillColor=none;top=0;left=0;bottom=0;right=0;pointerEvents=1;" vertex="1" parent="76_u4km6NrgJ4aft2lYu-97">
          <mxGeometry x="425" width="86" height="40" as="geometry">
            <mxRectangle width="86" height="40" as="alternateBounds" />
          </mxGeometry>
        </mxCell>
        <mxCell id="76_u4km6NrgJ4aft2lYu-103" style="shape=partialRectangle;html=1;whiteSpace=wrap;connectable=0;strokeColor=inherit;overflow=hidden;fillColor=none;top=0;left=0;bottom=0;right=0;pointerEvents=1;" vertex="1" parent="76_u4km6NrgJ4aft2lYu-97">
          <mxGeometry x="511" width="85" height="40" as="geometry">
            <mxRectangle width="85" height="40" as="alternateBounds" />
          </mxGeometry>
        </mxCell>
        <mxCell id="76_u4km6NrgJ4aft2lYu-129" style="shape=partialRectangle;html=1;whiteSpace=wrap;connectable=0;strokeColor=inherit;overflow=hidden;fillColor=none;top=0;left=0;bottom=0;right=0;pointerEvents=1;" vertex="1" parent="76_u4km6NrgJ4aft2lYu-97">
          <mxGeometry x="596" width="85" height="40" as="geometry">
            <mxRectangle width="85" height="40" as="alternateBounds" />
          </mxGeometry>
        </mxCell>
        <mxCell id="76_u4km6NrgJ4aft2lYu-136" style="shape=partialRectangle;html=1;whiteSpace=wrap;connectable=0;strokeColor=inherit;overflow=hidden;fillColor=none;top=0;left=0;bottom=0;right=0;pointerEvents=1;" vertex="1" parent="76_u4km6NrgJ4aft2lYu-97">
          <mxGeometry x="681" width="85" height="40" as="geometry">
            <mxRectangle width="85" height="40" as="alternateBounds" />
          </mxGeometry>
        </mxCell>
        <mxCell id="76_u4km6NrgJ4aft2lYu-143" style="shape=partialRectangle;html=1;whiteSpace=wrap;connectable=0;strokeColor=inherit;overflow=hidden;fillColor=none;top=0;left=0;bottom=0;right=0;pointerEvents=1;" vertex="1" parent="76_u4km6NrgJ4aft2lYu-97">
          <mxGeometry x="766" width="84" height="40" as="geometry">
            <mxRectangle width="84" height="40" as="alternateBounds" />
          </mxGeometry>
        </mxCell>
        <mxCell id="76_u4km6NrgJ4aft2lYu-104" value="" style="shape=tableRow;horizontal=0;startSize=0;swimlaneHead=0;swimlaneBody=0;strokeColor=inherit;top=0;left=0;bottom=0;right=0;collapsible=0;dropTarget=0;fillColor=none;points=[[0,0.5],[1,0.5]];portConstraint=eastwest;" vertex="1" parent="76_u4km6NrgJ4aft2lYu-75">
          <mxGeometry y="160" width="850" height="40" as="geometry" />
        </mxCell>
        <mxCell id="76_u4km6NrgJ4aft2lYu-105" value="FK Column" style="shape=partialRectangle;html=1;whiteSpace=wrap;connectable=0;strokeColor=inherit;overflow=hidden;fillColor=none;top=0;left=0;bottom=0;right=0;pointerEvents=1;fontStyle=1" vertex="1" parent="76_u4km6NrgJ4aft2lYu-104">
          <mxGeometry width="84" height="40" as="geometry">
            <mxRectangle width="84" height="40" as="alternateBounds" />
          </mxGeometry>
        </mxCell>
        <mxCell id="76_u4km6NrgJ4aft2lYu-106" value="" style="shape=partialRectangle;html=1;whiteSpace=wrap;connectable=0;strokeColor=inherit;overflow=hidden;fillColor=none;top=0;left=0;bottom=0;right=0;pointerEvents=1;" vertex="1" parent="76_u4km6NrgJ4aft2lYu-104">
          <mxGeometry x="84" width="86" height="40" as="geometry">
            <mxRectangle width="86" height="40" as="alternateBounds" />
          </mxGeometry>
        </mxCell>
        <mxCell id="76_u4km6NrgJ4aft2lYu-107" value="" style="shape=partialRectangle;html=1;whiteSpace=wrap;connectable=0;strokeColor=inherit;overflow=hidden;fillColor=none;top=0;left=0;bottom=0;right=0;pointerEvents=1;" vertex="1" parent="76_u4km6NrgJ4aft2lYu-104">
          <mxGeometry x="170" width="84" height="40" as="geometry">
            <mxRectangle width="84" height="40" as="alternateBounds" />
          </mxGeometry>
        </mxCell>
        <mxCell id="76_u4km6NrgJ4aft2lYu-108" style="shape=partialRectangle;html=1;whiteSpace=wrap;connectable=0;strokeColor=inherit;overflow=hidden;fillColor=none;top=0;left=0;bottom=0;right=0;pointerEvents=1;" vertex="1" parent="76_u4km6NrgJ4aft2lYu-104">
          <mxGeometry x="254" width="85" height="40" as="geometry">
            <mxRectangle width="85" height="40" as="alternateBounds" />
          </mxGeometry>
        </mxCell>
        <mxCell id="76_u4km6NrgJ4aft2lYu-439" style="shape=partialRectangle;html=1;whiteSpace=wrap;connectable=0;strokeColor=inherit;overflow=hidden;fillColor=none;top=0;left=0;bottom=0;right=0;pointerEvents=1;" vertex="1" parent="76_u4km6NrgJ4aft2lYu-104">
          <mxGeometry x="339" width="86" height="40" as="geometry">
            <mxRectangle width="86" height="40" as="alternateBounds" />
          </mxGeometry>
        </mxCell>
        <mxCell id="76_u4km6NrgJ4aft2lYu-109" style="shape=partialRectangle;html=1;whiteSpace=wrap;connectable=0;strokeColor=inherit;overflow=hidden;fillColor=none;top=0;left=0;bottom=0;right=0;pointerEvents=1;" vertex="1" parent="76_u4km6NrgJ4aft2lYu-104">
          <mxGeometry x="425" width="86" height="40" as="geometry">
            <mxRectangle width="86" height="40" as="alternateBounds" />
          </mxGeometry>
        </mxCell>
        <mxCell id="76_u4km6NrgJ4aft2lYu-110" style="shape=partialRectangle;html=1;whiteSpace=wrap;connectable=0;strokeColor=inherit;overflow=hidden;fillColor=none;top=0;left=0;bottom=0;right=0;pointerEvents=1;" vertex="1" parent="76_u4km6NrgJ4aft2lYu-104">
          <mxGeometry x="511" width="85" height="40" as="geometry">
            <mxRectangle width="85" height="40" as="alternateBounds" />
          </mxGeometry>
        </mxCell>
        <mxCell id="76_u4km6NrgJ4aft2lYu-130" style="shape=partialRectangle;html=1;whiteSpace=wrap;connectable=0;strokeColor=inherit;overflow=hidden;fillColor=none;top=0;left=0;bottom=0;right=0;pointerEvents=1;" vertex="1" parent="76_u4km6NrgJ4aft2lYu-104">
          <mxGeometry x="596" width="85" height="40" as="geometry">
            <mxRectangle width="85" height="40" as="alternateBounds" />
          </mxGeometry>
        </mxCell>
        <mxCell id="76_u4km6NrgJ4aft2lYu-137" style="shape=partialRectangle;html=1;whiteSpace=wrap;connectable=0;strokeColor=inherit;overflow=hidden;fillColor=none;top=0;left=0;bottom=0;right=0;pointerEvents=1;" vertex="1" parent="76_u4km6NrgJ4aft2lYu-104">
          <mxGeometry x="681" width="85" height="40" as="geometry">
            <mxRectangle width="85" height="40" as="alternateBounds" />
          </mxGeometry>
        </mxCell>
        <mxCell id="76_u4km6NrgJ4aft2lYu-144" style="shape=partialRectangle;html=1;whiteSpace=wrap;connectable=0;strokeColor=inherit;overflow=hidden;fillColor=none;top=0;left=0;bottom=0;right=0;pointerEvents=1;" vertex="1" parent="76_u4km6NrgJ4aft2lYu-104">
          <mxGeometry x="766" width="84" height="40" as="geometry">
            <mxRectangle width="84" height="40" as="alternateBounds" />
          </mxGeometry>
        </mxCell>
        <mxCell id="76_u4km6NrgJ4aft2lYu-111" value="" style="shape=tableRow;horizontal=0;startSize=0;swimlaneHead=0;swimlaneBody=0;strokeColor=inherit;top=0;left=0;bottom=0;right=0;collapsible=0;dropTarget=0;fillColor=none;points=[[0,0.5],[1,0.5]];portConstraint=eastwest;" vertex="1" parent="76_u4km6NrgJ4aft2lYu-75">
          <mxGeometry y="200" width="850" height="40" as="geometry" />
        </mxCell>
        <mxCell id="76_u4km6NrgJ4aft2lYu-112" value="Datatype" style="shape=partialRectangle;html=1;whiteSpace=wrap;connectable=0;strokeColor=inherit;overflow=hidden;fillColor=none;top=0;left=0;bottom=0;right=0;pointerEvents=1;fontStyle=1" vertex="1" parent="76_u4km6NrgJ4aft2lYu-111">
          <mxGeometry width="84" height="40" as="geometry">
            <mxRectangle width="84" height="40" as="alternateBounds" />
          </mxGeometry>
        </mxCell>
        <mxCell id="76_u4km6NrgJ4aft2lYu-113" value="NVARCHAR" style="shape=partialRectangle;html=1;whiteSpace=wrap;connectable=0;strokeColor=inherit;overflow=hidden;fillColor=none;top=0;left=0;bottom=0;right=0;pointerEvents=1;" vertex="1" parent="76_u4km6NrgJ4aft2lYu-111">
          <mxGeometry x="84" width="86" height="40" as="geometry">
            <mxRectangle width="86" height="40" as="alternateBounds" />
          </mxGeometry>
        </mxCell>
        <mxCell id="76_u4km6NrgJ4aft2lYu-114" value="INT" style="shape=partialRectangle;html=1;whiteSpace=wrap;connectable=0;strokeColor=inherit;overflow=hidden;fillColor=none;top=0;left=0;bottom=0;right=0;pointerEvents=1;" vertex="1" parent="76_u4km6NrgJ4aft2lYu-111">
          <mxGeometry x="170" width="84" height="40" as="geometry">
            <mxRectangle width="84" height="40" as="alternateBounds" />
          </mxGeometry>
        </mxCell>
        <mxCell id="76_u4km6NrgJ4aft2lYu-115" value="INT" style="shape=partialRectangle;html=1;whiteSpace=wrap;connectable=0;strokeColor=inherit;overflow=hidden;fillColor=none;top=0;left=0;bottom=0;right=0;pointerEvents=1;" vertex="1" parent="76_u4km6NrgJ4aft2lYu-111">
          <mxGeometry x="254" width="85" height="40" as="geometry">
            <mxRectangle width="85" height="40" as="alternateBounds" />
          </mxGeometry>
        </mxCell>
        <mxCell id="76_u4km6NrgJ4aft2lYu-440" value="INT" style="shape=partialRectangle;html=1;whiteSpace=wrap;connectable=0;strokeColor=inherit;overflow=hidden;fillColor=none;top=0;left=0;bottom=0;right=0;pointerEvents=1;" vertex="1" parent="76_u4km6NrgJ4aft2lYu-111">
          <mxGeometry x="339" width="86" height="40" as="geometry">
            <mxRectangle width="86" height="40" as="alternateBounds" />
          </mxGeometry>
        </mxCell>
        <mxCell id="76_u4km6NrgJ4aft2lYu-116" value="NVARCHAR" style="shape=partialRectangle;html=1;whiteSpace=wrap;connectable=0;strokeColor=inherit;overflow=hidden;fillColor=none;top=0;left=0;bottom=0;right=0;pointerEvents=1;" vertex="1" parent="76_u4km6NrgJ4aft2lYu-111">
          <mxGeometry x="425" width="86" height="40" as="geometry">
            <mxRectangle width="86" height="40" as="alternateBounds" />
          </mxGeometry>
        </mxCell>
        <mxCell id="76_u4km6NrgJ4aft2lYu-117" value="NVARCHAR" style="shape=partialRectangle;html=1;whiteSpace=wrap;connectable=0;strokeColor=inherit;overflow=hidden;fillColor=none;top=0;left=0;bottom=0;right=0;pointerEvents=1;" vertex="1" parent="76_u4km6NrgJ4aft2lYu-111">
          <mxGeometry x="511" width="85" height="40" as="geometry">
            <mxRectangle width="85" height="40" as="alternateBounds" />
          </mxGeometry>
        </mxCell>
        <mxCell id="76_u4km6NrgJ4aft2lYu-131" value="INT" style="shape=partialRectangle;html=1;whiteSpace=wrap;connectable=0;strokeColor=inherit;overflow=hidden;fillColor=none;top=0;left=0;bottom=0;right=0;pointerEvents=1;" vertex="1" parent="76_u4km6NrgJ4aft2lYu-111">
          <mxGeometry x="596" width="85" height="40" as="geometry">
            <mxRectangle width="85" height="40" as="alternateBounds" />
          </mxGeometry>
        </mxCell>
        <mxCell id="76_u4km6NrgJ4aft2lYu-138" value="INT" style="shape=partialRectangle;html=1;whiteSpace=wrap;connectable=0;strokeColor=inherit;overflow=hidden;fillColor=none;top=0;left=0;bottom=0;right=0;pointerEvents=1;" vertex="1" parent="76_u4km6NrgJ4aft2lYu-111">
          <mxGeometry x="681" width="85" height="40" as="geometry">
            <mxRectangle width="85" height="40" as="alternateBounds" />
          </mxGeometry>
        </mxCell>
        <mxCell id="76_u4km6NrgJ4aft2lYu-145" value="MONEY" style="shape=partialRectangle;html=1;whiteSpace=wrap;connectable=0;strokeColor=inherit;overflow=hidden;fillColor=none;top=0;left=0;bottom=0;right=0;pointerEvents=1;" vertex="1" parent="76_u4km6NrgJ4aft2lYu-111">
          <mxGeometry x="766" width="84" height="40" as="geometry">
            <mxRectangle width="84" height="40" as="alternateBounds" />
          </mxGeometry>
        </mxCell>
        <mxCell id="76_u4km6NrgJ4aft2lYu-118" value="" style="shape=tableRow;horizontal=0;startSize=0;swimlaneHead=0;swimlaneBody=0;strokeColor=inherit;top=0;left=0;bottom=0;right=0;collapsible=0;dropTarget=0;fillColor=none;points=[[0,0.5],[1,0.5]];portConstraint=eastwest;" vertex="1" parent="76_u4km6NrgJ4aft2lYu-75">
          <mxGeometry y="240" width="850" height="40" as="geometry" />
        </mxCell>
        <mxCell id="76_u4km6NrgJ4aft2lYu-119" value="Max Length" style="shape=partialRectangle;html=1;whiteSpace=wrap;connectable=0;strokeColor=inherit;overflow=hidden;fillColor=none;top=0;left=0;bottom=0;right=0;pointerEvents=1;fontStyle=1" vertex="1" parent="76_u4km6NrgJ4aft2lYu-118">
          <mxGeometry width="84" height="40" as="geometry">
            <mxRectangle width="84" height="40" as="alternateBounds" />
          </mxGeometry>
        </mxCell>
        <mxCell id="76_u4km6NrgJ4aft2lYu-120" value="20" style="shape=partialRectangle;html=1;whiteSpace=wrap;connectable=0;strokeColor=inherit;overflow=hidden;fillColor=none;top=0;left=0;bottom=0;right=0;pointerEvents=1;" vertex="1" parent="76_u4km6NrgJ4aft2lYu-118">
          <mxGeometry x="84" width="86" height="40" as="geometry">
            <mxRectangle width="86" height="40" as="alternateBounds" />
          </mxGeometry>
        </mxCell>
        <mxCell id="76_u4km6NrgJ4aft2lYu-121" value="" style="shape=partialRectangle;html=1;whiteSpace=wrap;connectable=0;strokeColor=inherit;overflow=hidden;fillColor=none;top=0;left=0;bottom=0;right=0;pointerEvents=1;" vertex="1" parent="76_u4km6NrgJ4aft2lYu-118">
          <mxGeometry x="170" width="84" height="40" as="geometry">
            <mxRectangle width="84" height="40" as="alternateBounds" />
          </mxGeometry>
        </mxCell>
        <mxCell id="76_u4km6NrgJ4aft2lYu-122" value="" style="shape=partialRectangle;html=1;whiteSpace=wrap;connectable=0;strokeColor=inherit;overflow=hidden;fillColor=none;top=0;left=0;bottom=0;right=0;pointerEvents=1;" vertex="1" parent="76_u4km6NrgJ4aft2lYu-118">
          <mxGeometry x="254" width="85" height="40" as="geometry">
            <mxRectangle width="85" height="40" as="alternateBounds" />
          </mxGeometry>
        </mxCell>
        <mxCell id="76_u4km6NrgJ4aft2lYu-441" style="shape=partialRectangle;html=1;whiteSpace=wrap;connectable=0;strokeColor=inherit;overflow=hidden;fillColor=none;top=0;left=0;bottom=0;right=0;pointerEvents=1;" vertex="1" parent="76_u4km6NrgJ4aft2lYu-118">
          <mxGeometry x="339" width="86" height="40" as="geometry">
            <mxRectangle width="86" height="40" as="alternateBounds" />
          </mxGeometry>
        </mxCell>
        <mxCell id="76_u4km6NrgJ4aft2lYu-123" value="100" style="shape=partialRectangle;html=1;whiteSpace=wrap;connectable=0;strokeColor=inherit;overflow=hidden;fillColor=none;top=0;left=0;bottom=0;right=0;pointerEvents=1;" vertex="1" parent="76_u4km6NrgJ4aft2lYu-118">
          <mxGeometry x="425" width="86" height="40" as="geometry">
            <mxRectangle width="86" height="40" as="alternateBounds" />
          </mxGeometry>
        </mxCell>
        <mxCell id="76_u4km6NrgJ4aft2lYu-124" value="MAX" style="shape=partialRectangle;html=1;whiteSpace=wrap;connectable=0;strokeColor=inherit;overflow=hidden;fillColor=none;top=0;left=0;bottom=0;right=0;pointerEvents=1;" vertex="1" parent="76_u4km6NrgJ4aft2lYu-118">
          <mxGeometry x="511" width="85" height="40" as="geometry">
            <mxRectangle width="85" height="40" as="alternateBounds" />
          </mxGeometry>
        </mxCell>
        <mxCell id="76_u4km6NrgJ4aft2lYu-132" style="shape=partialRectangle;html=1;whiteSpace=wrap;connectable=0;strokeColor=inherit;overflow=hidden;fillColor=none;top=0;left=0;bottom=0;right=0;pointerEvents=1;" vertex="1" parent="76_u4km6NrgJ4aft2lYu-118">
          <mxGeometry x="596" width="85" height="40" as="geometry">
            <mxRectangle width="85" height="40" as="alternateBounds" />
          </mxGeometry>
        </mxCell>
        <mxCell id="76_u4km6NrgJ4aft2lYu-139" style="shape=partialRectangle;html=1;whiteSpace=wrap;connectable=0;strokeColor=inherit;overflow=hidden;fillColor=none;top=0;left=0;bottom=0;right=0;pointerEvents=1;" vertex="1" parent="76_u4km6NrgJ4aft2lYu-118">
          <mxGeometry x="681" width="85" height="40" as="geometry">
            <mxRectangle width="85" height="40" as="alternateBounds" />
          </mxGeometry>
        </mxCell>
        <mxCell id="76_u4km6NrgJ4aft2lYu-146" style="shape=partialRectangle;html=1;whiteSpace=wrap;connectable=0;strokeColor=inherit;overflow=hidden;fillColor=none;top=0;left=0;bottom=0;right=0;pointerEvents=1;" vertex="1" parent="76_u4km6NrgJ4aft2lYu-118">
          <mxGeometry x="766" width="84" height="40" as="geometry">
            <mxRectangle width="84" height="40" as="alternateBounds" />
          </mxGeometry>
        </mxCell>
        <mxCell id="76_u4km6NrgJ4aft2lYu-125" value="&lt;b&gt;&lt;font style=&quot;font-size: 14px;&quot;&gt;Book&lt;/font&gt;&lt;/b&gt;" style="text;html=1;align=center;verticalAlign=middle;resizable=0;points=[];autosize=1;strokeColor=none;fillColor=none;" vertex="1" parent="1">
          <mxGeometry y="970" width="60" height="30" as="geometry" />
        </mxCell>
        <mxCell id="76_u4km6NrgJ4aft2lYu-247" value="" style="shape=table;startSize=0;container=1;collapsible=0;childLayout=tableLayout;" vertex="1" parent="1">
          <mxGeometry x="40" y="1360" width="360" height="290" as="geometry" />
        </mxCell>
        <mxCell id="76_u4km6NrgJ4aft2lYu-248" value="" style="shape=tableRow;horizontal=0;startSize=0;swimlaneHead=0;swimlaneBody=0;strokeColor=inherit;top=0;left=0;bottom=0;right=0;collapsible=0;dropTarget=0;fillColor=none;points=[[0,0.5],[1,0.5]];portConstraint=eastwest;" vertex="1" parent="76_u4km6NrgJ4aft2lYu-247">
          <mxGeometry width="360" height="41" as="geometry" />
        </mxCell>
        <mxCell id="76_u4km6NrgJ4aft2lYu-249" value="Column Name" style="shape=partialRectangle;html=1;whiteSpace=wrap;connectable=0;strokeColor=inherit;overflow=hidden;fillColor=none;top=0;left=0;bottom=0;right=0;pointerEvents=1;fontStyle=1" vertex="1" parent="76_u4km6NrgJ4aft2lYu-248">
          <mxGeometry width="120" height="41" as="geometry">
            <mxRectangle width="120" height="41" as="alternateBounds" />
          </mxGeometry>
        </mxCell>
        <mxCell id="76_u4km6NrgJ4aft2lYu-250" value="Author_ID" style="shape=partialRectangle;html=1;whiteSpace=wrap;connectable=0;strokeColor=inherit;overflow=hidden;fillColor=none;top=0;left=0;bottom=0;right=0;pointerEvents=1;fontStyle=4" vertex="1" parent="76_u4km6NrgJ4aft2lYu-248">
          <mxGeometry x="120" width="120" height="41" as="geometry">
            <mxRectangle width="120" height="41" as="alternateBounds" />
          </mxGeometry>
        </mxCell>
        <mxCell id="76_u4km6NrgJ4aft2lYu-251" value="Author_name" style="shape=partialRectangle;html=1;whiteSpace=wrap;connectable=0;strokeColor=inherit;overflow=hidden;fillColor=none;top=0;left=0;bottom=0;right=0;pointerEvents=1;" vertex="1" parent="76_u4km6NrgJ4aft2lYu-248">
          <mxGeometry x="240" width="120" height="41" as="geometry">
            <mxRectangle width="120" height="41" as="alternateBounds" />
          </mxGeometry>
        </mxCell>
        <mxCell id="76_u4km6NrgJ4aft2lYu-252" value="" style="shape=tableRow;horizontal=0;startSize=0;swimlaneHead=0;swimlaneBody=0;strokeColor=inherit;top=0;left=0;bottom=0;right=0;collapsible=0;dropTarget=0;fillColor=none;points=[[0,0.5],[1,0.5]];portConstraint=eastwest;" vertex="1" parent="76_u4km6NrgJ4aft2lYu-247">
          <mxGeometry y="41" width="360" height="42" as="geometry" />
        </mxCell>
        <mxCell id="76_u4km6NrgJ4aft2lYu-253" value="Key Type" style="shape=partialRectangle;html=1;whiteSpace=wrap;connectable=0;strokeColor=inherit;overflow=hidden;fillColor=none;top=0;left=0;bottom=0;right=0;pointerEvents=1;fontStyle=1" vertex="1" parent="76_u4km6NrgJ4aft2lYu-252">
          <mxGeometry width="120" height="42" as="geometry">
            <mxRectangle width="120" height="42" as="alternateBounds" />
          </mxGeometry>
        </mxCell>
        <mxCell id="76_u4km6NrgJ4aft2lYu-254" value="PK" style="shape=partialRectangle;html=1;whiteSpace=wrap;connectable=0;strokeColor=inherit;overflow=hidden;fillColor=none;top=0;left=0;bottom=0;right=0;pointerEvents=1;" vertex="1" parent="76_u4km6NrgJ4aft2lYu-252">
          <mxGeometry x="120" width="120" height="42" as="geometry">
            <mxRectangle width="120" height="42" as="alternateBounds" />
          </mxGeometry>
        </mxCell>
        <mxCell id="76_u4km6NrgJ4aft2lYu-255" value="" style="shape=partialRectangle;html=1;whiteSpace=wrap;connectable=0;strokeColor=inherit;overflow=hidden;fillColor=none;top=0;left=0;bottom=0;right=0;pointerEvents=1;" vertex="1" parent="76_u4km6NrgJ4aft2lYu-252">
          <mxGeometry x="240" width="120" height="42" as="geometry">
            <mxRectangle width="120" height="42" as="alternateBounds" />
          </mxGeometry>
        </mxCell>
        <mxCell id="76_u4km6NrgJ4aft2lYu-256" value="" style="shape=tableRow;horizontal=0;startSize=0;swimlaneHead=0;swimlaneBody=0;strokeColor=inherit;top=0;left=0;bottom=0;right=0;collapsible=0;dropTarget=0;fillColor=none;points=[[0,0.5],[1,0.5]];portConstraint=eastwest;" vertex="1" parent="76_u4km6NrgJ4aft2lYu-247">
          <mxGeometry y="83" width="360" height="41" as="geometry" />
        </mxCell>
        <mxCell id="76_u4km6NrgJ4aft2lYu-257" value="Null/Unique" style="shape=partialRectangle;html=1;whiteSpace=wrap;connectable=0;strokeColor=inherit;overflow=hidden;fillColor=none;top=0;left=0;bottom=0;right=0;pointerEvents=1;fontStyle=1" vertex="1" parent="76_u4km6NrgJ4aft2lYu-256">
          <mxGeometry width="120" height="41" as="geometry">
            <mxRectangle width="120" height="41" as="alternateBounds" />
          </mxGeometry>
        </mxCell>
        <mxCell id="76_u4km6NrgJ4aft2lYu-258" value="NN, U" style="shape=partialRectangle;html=1;whiteSpace=wrap;connectable=0;strokeColor=inherit;overflow=hidden;fillColor=none;top=0;left=0;bottom=0;right=0;pointerEvents=1;" vertex="1" parent="76_u4km6NrgJ4aft2lYu-256">
          <mxGeometry x="120" width="120" height="41" as="geometry">
            <mxRectangle width="120" height="41" as="alternateBounds" />
          </mxGeometry>
        </mxCell>
        <mxCell id="76_u4km6NrgJ4aft2lYu-259" value="NN" style="shape=partialRectangle;html=1;whiteSpace=wrap;connectable=0;strokeColor=inherit;overflow=hidden;fillColor=none;top=0;left=0;bottom=0;right=0;pointerEvents=1;" vertex="1" parent="76_u4km6NrgJ4aft2lYu-256">
          <mxGeometry x="240" width="120" height="41" as="geometry">
            <mxRectangle width="120" height="41" as="alternateBounds" />
          </mxGeometry>
        </mxCell>
        <mxCell id="76_u4km6NrgJ4aft2lYu-260" value="" style="shape=tableRow;horizontal=0;startSize=0;swimlaneHead=0;swimlaneBody=0;strokeColor=inherit;top=0;left=0;bottom=0;right=0;collapsible=0;dropTarget=0;fillColor=none;points=[[0,0.5],[1,0.5]];portConstraint=eastwest;" vertex="1" parent="76_u4km6NrgJ4aft2lYu-247">
          <mxGeometry y="124" width="360" height="42" as="geometry" />
        </mxCell>
        <mxCell id="76_u4km6NrgJ4aft2lYu-261" value="FK Table" style="shape=partialRectangle;html=1;whiteSpace=wrap;connectable=0;strokeColor=inherit;overflow=hidden;fillColor=none;top=0;left=0;bottom=0;right=0;pointerEvents=1;fontStyle=1" vertex="1" parent="76_u4km6NrgJ4aft2lYu-260">
          <mxGeometry width="120" height="42" as="geometry">
            <mxRectangle width="120" height="42" as="alternateBounds" />
          </mxGeometry>
        </mxCell>
        <mxCell id="76_u4km6NrgJ4aft2lYu-262" value="" style="shape=partialRectangle;html=1;whiteSpace=wrap;connectable=0;strokeColor=inherit;overflow=hidden;fillColor=none;top=0;left=0;bottom=0;right=0;pointerEvents=1;" vertex="1" parent="76_u4km6NrgJ4aft2lYu-260">
          <mxGeometry x="120" width="120" height="42" as="geometry">
            <mxRectangle width="120" height="42" as="alternateBounds" />
          </mxGeometry>
        </mxCell>
        <mxCell id="76_u4km6NrgJ4aft2lYu-263" value="" style="shape=partialRectangle;html=1;whiteSpace=wrap;connectable=0;strokeColor=inherit;overflow=hidden;fillColor=none;top=0;left=0;bottom=0;right=0;pointerEvents=1;" vertex="1" parent="76_u4km6NrgJ4aft2lYu-260">
          <mxGeometry x="240" width="120" height="42" as="geometry">
            <mxRectangle width="120" height="42" as="alternateBounds" />
          </mxGeometry>
        </mxCell>
        <mxCell id="76_u4km6NrgJ4aft2lYu-264" value="" style="shape=tableRow;horizontal=0;startSize=0;swimlaneHead=0;swimlaneBody=0;strokeColor=inherit;top=0;left=0;bottom=0;right=0;collapsible=0;dropTarget=0;fillColor=none;points=[[0,0.5],[1,0.5]];portConstraint=eastwest;" vertex="1" parent="76_u4km6NrgJ4aft2lYu-247">
          <mxGeometry y="166" width="360" height="41" as="geometry" />
        </mxCell>
        <mxCell id="76_u4km6NrgJ4aft2lYu-265" value="FK Column" style="shape=partialRectangle;html=1;whiteSpace=wrap;connectable=0;strokeColor=inherit;overflow=hidden;fillColor=none;top=0;left=0;bottom=0;right=0;pointerEvents=1;fontStyle=1" vertex="1" parent="76_u4km6NrgJ4aft2lYu-264">
          <mxGeometry width="120" height="41" as="geometry">
            <mxRectangle width="120" height="41" as="alternateBounds" />
          </mxGeometry>
        </mxCell>
        <mxCell id="76_u4km6NrgJ4aft2lYu-266" value="" style="shape=partialRectangle;html=1;whiteSpace=wrap;connectable=0;strokeColor=inherit;overflow=hidden;fillColor=none;top=0;left=0;bottom=0;right=0;pointerEvents=1;" vertex="1" parent="76_u4km6NrgJ4aft2lYu-264">
          <mxGeometry x="120" width="120" height="41" as="geometry">
            <mxRectangle width="120" height="41" as="alternateBounds" />
          </mxGeometry>
        </mxCell>
        <mxCell id="76_u4km6NrgJ4aft2lYu-267" value="" style="shape=partialRectangle;html=1;whiteSpace=wrap;connectable=0;strokeColor=inherit;overflow=hidden;fillColor=none;top=0;left=0;bottom=0;right=0;pointerEvents=1;" vertex="1" parent="76_u4km6NrgJ4aft2lYu-264">
          <mxGeometry x="240" width="120" height="41" as="geometry">
            <mxRectangle width="120" height="41" as="alternateBounds" />
          </mxGeometry>
        </mxCell>
        <mxCell id="76_u4km6NrgJ4aft2lYu-268" value="" style="shape=tableRow;horizontal=0;startSize=0;swimlaneHead=0;swimlaneBody=0;strokeColor=inherit;top=0;left=0;bottom=0;right=0;collapsible=0;dropTarget=0;fillColor=none;points=[[0,0.5],[1,0.5]];portConstraint=eastwest;" vertex="1" parent="76_u4km6NrgJ4aft2lYu-247">
          <mxGeometry y="207" width="360" height="42" as="geometry" />
        </mxCell>
        <mxCell id="76_u4km6NrgJ4aft2lYu-269" value="Datatype" style="shape=partialRectangle;html=1;whiteSpace=wrap;connectable=0;strokeColor=inherit;overflow=hidden;fillColor=none;top=0;left=0;bottom=0;right=0;pointerEvents=1;fontStyle=1" vertex="1" parent="76_u4km6NrgJ4aft2lYu-268">
          <mxGeometry width="120" height="42" as="geometry">
            <mxRectangle width="120" height="42" as="alternateBounds" />
          </mxGeometry>
        </mxCell>
        <mxCell id="76_u4km6NrgJ4aft2lYu-270" value="INT" style="shape=partialRectangle;html=1;whiteSpace=wrap;connectable=0;strokeColor=inherit;overflow=hidden;fillColor=none;top=0;left=0;bottom=0;right=0;pointerEvents=1;" vertex="1" parent="76_u4km6NrgJ4aft2lYu-268">
          <mxGeometry x="120" width="120" height="42" as="geometry">
            <mxRectangle width="120" height="42" as="alternateBounds" />
          </mxGeometry>
        </mxCell>
        <mxCell id="76_u4km6NrgJ4aft2lYu-271" value="NVARCHAR" style="shape=partialRectangle;html=1;whiteSpace=wrap;connectable=0;strokeColor=inherit;overflow=hidden;fillColor=none;top=0;left=0;bottom=0;right=0;pointerEvents=1;" vertex="1" parent="76_u4km6NrgJ4aft2lYu-268">
          <mxGeometry x="240" width="120" height="42" as="geometry">
            <mxRectangle width="120" height="42" as="alternateBounds" />
          </mxGeometry>
        </mxCell>
        <mxCell id="76_u4km6NrgJ4aft2lYu-272" value="" style="shape=tableRow;horizontal=0;startSize=0;swimlaneHead=0;swimlaneBody=0;strokeColor=inherit;top=0;left=0;bottom=0;right=0;collapsible=0;dropTarget=0;fillColor=none;points=[[0,0.5],[1,0.5]];portConstraint=eastwest;" vertex="1" parent="76_u4km6NrgJ4aft2lYu-247">
          <mxGeometry y="249" width="360" height="41" as="geometry" />
        </mxCell>
        <mxCell id="76_u4km6NrgJ4aft2lYu-273" value="Max Length" style="shape=partialRectangle;html=1;whiteSpace=wrap;connectable=0;strokeColor=inherit;overflow=hidden;fillColor=none;top=0;left=0;bottom=0;right=0;pointerEvents=1;fontStyle=1" vertex="1" parent="76_u4km6NrgJ4aft2lYu-272">
          <mxGeometry width="120" height="41" as="geometry">
            <mxRectangle width="120" height="41" as="alternateBounds" />
          </mxGeometry>
        </mxCell>
        <mxCell id="76_u4km6NrgJ4aft2lYu-274" value="" style="shape=partialRectangle;html=1;whiteSpace=wrap;connectable=0;strokeColor=inherit;overflow=hidden;fillColor=none;top=0;left=0;bottom=0;right=0;pointerEvents=1;" vertex="1" parent="76_u4km6NrgJ4aft2lYu-272">
          <mxGeometry x="120" width="120" height="41" as="geometry">
            <mxRectangle width="120" height="41" as="alternateBounds" />
          </mxGeometry>
        </mxCell>
        <mxCell id="76_u4km6NrgJ4aft2lYu-275" value="50" style="shape=partialRectangle;html=1;whiteSpace=wrap;connectable=0;strokeColor=inherit;overflow=hidden;fillColor=none;top=0;left=0;bottom=0;right=0;pointerEvents=1;" vertex="1" parent="76_u4km6NrgJ4aft2lYu-272">
          <mxGeometry x="240" width="120" height="41" as="geometry">
            <mxRectangle width="120" height="41" as="alternateBounds" />
          </mxGeometry>
        </mxCell>
        <mxCell id="76_u4km6NrgJ4aft2lYu-318" value="&lt;b&gt;&lt;font style=&quot;font-size: 14px;&quot;&gt;Author&lt;/font&gt;&lt;/b&gt;" style="text;html=1;align=center;verticalAlign=middle;resizable=0;points=[];autosize=1;strokeColor=none;fillColor=none;" vertex="1" parent="1">
          <mxGeometry x="40" y="1330" width="70" height="30" as="geometry" />
        </mxCell>
        <mxCell id="76_u4km6NrgJ4aft2lYu-320" value="" style="shape=table;startSize=0;container=1;collapsible=0;childLayout=tableLayout;" vertex="1" parent="1">
          <mxGeometry x="480" y="1360" width="360" height="290" as="geometry" />
        </mxCell>
        <mxCell id="76_u4km6NrgJ4aft2lYu-321" value="" style="shape=tableRow;horizontal=0;startSize=0;swimlaneHead=0;swimlaneBody=0;strokeColor=inherit;top=0;left=0;bottom=0;right=0;collapsible=0;dropTarget=0;fillColor=none;points=[[0,0.5],[1,0.5]];portConstraint=eastwest;" vertex="1" parent="76_u4km6NrgJ4aft2lYu-320">
          <mxGeometry width="360" height="41" as="geometry" />
        </mxCell>
        <mxCell id="76_u4km6NrgJ4aft2lYu-322" value="Column Name" style="shape=partialRectangle;html=1;whiteSpace=wrap;connectable=0;strokeColor=inherit;overflow=hidden;fillColor=none;top=0;left=0;bottom=0;right=0;pointerEvents=1;fontStyle=1" vertex="1" parent="76_u4km6NrgJ4aft2lYu-321">
          <mxGeometry width="120" height="41" as="geometry">
            <mxRectangle width="120" height="41" as="alternateBounds" />
          </mxGeometry>
        </mxCell>
        <mxCell id="76_u4km6NrgJ4aft2lYu-323" value="Author_ID*" style="shape=partialRectangle;html=1;whiteSpace=wrap;connectable=0;strokeColor=inherit;overflow=hidden;fillColor=none;top=0;left=0;bottom=0;right=0;pointerEvents=1;fontStyle=0" vertex="1" parent="76_u4km6NrgJ4aft2lYu-321">
          <mxGeometry x="120" width="120" height="41" as="geometry">
            <mxRectangle width="120" height="41" as="alternateBounds" />
          </mxGeometry>
        </mxCell>
        <mxCell id="76_u4km6NrgJ4aft2lYu-324" value="Book_ID*" style="shape=partialRectangle;html=1;whiteSpace=wrap;connectable=0;strokeColor=inherit;overflow=hidden;fillColor=none;top=0;left=0;bottom=0;right=0;pointerEvents=1;" vertex="1" parent="76_u4km6NrgJ4aft2lYu-321">
          <mxGeometry x="240" width="120" height="41" as="geometry">
            <mxRectangle width="120" height="41" as="alternateBounds" />
          </mxGeometry>
        </mxCell>
        <mxCell id="76_u4km6NrgJ4aft2lYu-325" value="" style="shape=tableRow;horizontal=0;startSize=0;swimlaneHead=0;swimlaneBody=0;strokeColor=inherit;top=0;left=0;bottom=0;right=0;collapsible=0;dropTarget=0;fillColor=none;points=[[0,0.5],[1,0.5]];portConstraint=eastwest;" vertex="1" parent="76_u4km6NrgJ4aft2lYu-320">
          <mxGeometry y="41" width="360" height="42" as="geometry" />
        </mxCell>
        <mxCell id="76_u4km6NrgJ4aft2lYu-326" value="Key Type" style="shape=partialRectangle;html=1;whiteSpace=wrap;connectable=0;strokeColor=inherit;overflow=hidden;fillColor=none;top=0;left=0;bottom=0;right=0;pointerEvents=1;fontStyle=1" vertex="1" parent="76_u4km6NrgJ4aft2lYu-325">
          <mxGeometry width="120" height="42" as="geometry">
            <mxRectangle width="120" height="42" as="alternateBounds" />
          </mxGeometry>
        </mxCell>
        <mxCell id="76_u4km6NrgJ4aft2lYu-327" value="FK" style="shape=partialRectangle;html=1;whiteSpace=wrap;connectable=0;strokeColor=inherit;overflow=hidden;fillColor=none;top=0;left=0;bottom=0;right=0;pointerEvents=1;" vertex="1" parent="76_u4km6NrgJ4aft2lYu-325">
          <mxGeometry x="120" width="120" height="42" as="geometry">
            <mxRectangle width="120" height="42" as="alternateBounds" />
          </mxGeometry>
        </mxCell>
        <mxCell id="76_u4km6NrgJ4aft2lYu-328" value="FK" style="shape=partialRectangle;html=1;whiteSpace=wrap;connectable=0;strokeColor=inherit;overflow=hidden;fillColor=none;top=0;left=0;bottom=0;right=0;pointerEvents=1;" vertex="1" parent="76_u4km6NrgJ4aft2lYu-325">
          <mxGeometry x="240" width="120" height="42" as="geometry">
            <mxRectangle width="120" height="42" as="alternateBounds" />
          </mxGeometry>
        </mxCell>
        <mxCell id="76_u4km6NrgJ4aft2lYu-329" value="" style="shape=tableRow;horizontal=0;startSize=0;swimlaneHead=0;swimlaneBody=0;strokeColor=inherit;top=0;left=0;bottom=0;right=0;collapsible=0;dropTarget=0;fillColor=none;points=[[0,0.5],[1,0.5]];portConstraint=eastwest;" vertex="1" parent="76_u4km6NrgJ4aft2lYu-320">
          <mxGeometry y="83" width="360" height="41" as="geometry" />
        </mxCell>
        <mxCell id="76_u4km6NrgJ4aft2lYu-330" value="Null/Unique" style="shape=partialRectangle;html=1;whiteSpace=wrap;connectable=0;strokeColor=inherit;overflow=hidden;fillColor=none;top=0;left=0;bottom=0;right=0;pointerEvents=1;fontStyle=1" vertex="1" parent="76_u4km6NrgJ4aft2lYu-329">
          <mxGeometry width="120" height="41" as="geometry">
            <mxRectangle width="120" height="41" as="alternateBounds" />
          </mxGeometry>
        </mxCell>
        <mxCell id="76_u4km6NrgJ4aft2lYu-331" value="NN" style="shape=partialRectangle;html=1;whiteSpace=wrap;connectable=0;strokeColor=inherit;overflow=hidden;fillColor=none;top=0;left=0;bottom=0;right=0;pointerEvents=1;" vertex="1" parent="76_u4km6NrgJ4aft2lYu-329">
          <mxGeometry x="120" width="120" height="41" as="geometry">
            <mxRectangle width="120" height="41" as="alternateBounds" />
          </mxGeometry>
        </mxCell>
        <mxCell id="76_u4km6NrgJ4aft2lYu-332" value="NN" style="shape=partialRectangle;html=1;whiteSpace=wrap;connectable=0;strokeColor=inherit;overflow=hidden;fillColor=none;top=0;left=0;bottom=0;right=0;pointerEvents=1;" vertex="1" parent="76_u4km6NrgJ4aft2lYu-329">
          <mxGeometry x="240" width="120" height="41" as="geometry">
            <mxRectangle width="120" height="41" as="alternateBounds" />
          </mxGeometry>
        </mxCell>
        <mxCell id="76_u4km6NrgJ4aft2lYu-333" value="" style="shape=tableRow;horizontal=0;startSize=0;swimlaneHead=0;swimlaneBody=0;strokeColor=inherit;top=0;left=0;bottom=0;right=0;collapsible=0;dropTarget=0;fillColor=none;points=[[0,0.5],[1,0.5]];portConstraint=eastwest;" vertex="1" parent="76_u4km6NrgJ4aft2lYu-320">
          <mxGeometry y="124" width="360" height="42" as="geometry" />
        </mxCell>
        <mxCell id="76_u4km6NrgJ4aft2lYu-334" value="FK Table" style="shape=partialRectangle;html=1;whiteSpace=wrap;connectable=0;strokeColor=inherit;overflow=hidden;fillColor=none;top=0;left=0;bottom=0;right=0;pointerEvents=1;fontStyle=1" vertex="1" parent="76_u4km6NrgJ4aft2lYu-333">
          <mxGeometry width="120" height="42" as="geometry">
            <mxRectangle width="120" height="42" as="alternateBounds" />
          </mxGeometry>
        </mxCell>
        <mxCell id="76_u4km6NrgJ4aft2lYu-335" value="" style="shape=partialRectangle;html=1;whiteSpace=wrap;connectable=0;strokeColor=inherit;overflow=hidden;fillColor=none;top=0;left=0;bottom=0;right=0;pointerEvents=1;" vertex="1" parent="76_u4km6NrgJ4aft2lYu-333">
          <mxGeometry x="120" width="120" height="42" as="geometry">
            <mxRectangle width="120" height="42" as="alternateBounds" />
          </mxGeometry>
        </mxCell>
        <mxCell id="76_u4km6NrgJ4aft2lYu-336" value="" style="shape=partialRectangle;html=1;whiteSpace=wrap;connectable=0;strokeColor=inherit;overflow=hidden;fillColor=none;top=0;left=0;bottom=0;right=0;pointerEvents=1;" vertex="1" parent="76_u4km6NrgJ4aft2lYu-333">
          <mxGeometry x="240" width="120" height="42" as="geometry">
            <mxRectangle width="120" height="42" as="alternateBounds" />
          </mxGeometry>
        </mxCell>
        <mxCell id="76_u4km6NrgJ4aft2lYu-337" value="" style="shape=tableRow;horizontal=0;startSize=0;swimlaneHead=0;swimlaneBody=0;strokeColor=inherit;top=0;left=0;bottom=0;right=0;collapsible=0;dropTarget=0;fillColor=none;points=[[0,0.5],[1,0.5]];portConstraint=eastwest;" vertex="1" parent="76_u4km6NrgJ4aft2lYu-320">
          <mxGeometry y="166" width="360" height="41" as="geometry" />
        </mxCell>
        <mxCell id="76_u4km6NrgJ4aft2lYu-338" value="FK Column" style="shape=partialRectangle;html=1;whiteSpace=wrap;connectable=0;strokeColor=inherit;overflow=hidden;fillColor=none;top=0;left=0;bottom=0;right=0;pointerEvents=1;fontStyle=1" vertex="1" parent="76_u4km6NrgJ4aft2lYu-337">
          <mxGeometry width="120" height="41" as="geometry">
            <mxRectangle width="120" height="41" as="alternateBounds" />
          </mxGeometry>
        </mxCell>
        <mxCell id="76_u4km6NrgJ4aft2lYu-339" value="" style="shape=partialRectangle;html=1;whiteSpace=wrap;connectable=0;strokeColor=inherit;overflow=hidden;fillColor=none;top=0;left=0;bottom=0;right=0;pointerEvents=1;" vertex="1" parent="76_u4km6NrgJ4aft2lYu-337">
          <mxGeometry x="120" width="120" height="41" as="geometry">
            <mxRectangle width="120" height="41" as="alternateBounds" />
          </mxGeometry>
        </mxCell>
        <mxCell id="76_u4km6NrgJ4aft2lYu-340" value="" style="shape=partialRectangle;html=1;whiteSpace=wrap;connectable=0;strokeColor=inherit;overflow=hidden;fillColor=none;top=0;left=0;bottom=0;right=0;pointerEvents=1;" vertex="1" parent="76_u4km6NrgJ4aft2lYu-337">
          <mxGeometry x="240" width="120" height="41" as="geometry">
            <mxRectangle width="120" height="41" as="alternateBounds" />
          </mxGeometry>
        </mxCell>
        <mxCell id="76_u4km6NrgJ4aft2lYu-341" value="" style="shape=tableRow;horizontal=0;startSize=0;swimlaneHead=0;swimlaneBody=0;strokeColor=inherit;top=0;left=0;bottom=0;right=0;collapsible=0;dropTarget=0;fillColor=none;points=[[0,0.5],[1,0.5]];portConstraint=eastwest;" vertex="1" parent="76_u4km6NrgJ4aft2lYu-320">
          <mxGeometry y="207" width="360" height="42" as="geometry" />
        </mxCell>
        <mxCell id="76_u4km6NrgJ4aft2lYu-342" value="Datatype" style="shape=partialRectangle;html=1;whiteSpace=wrap;connectable=0;strokeColor=inherit;overflow=hidden;fillColor=none;top=0;left=0;bottom=0;right=0;pointerEvents=1;fontStyle=1" vertex="1" parent="76_u4km6NrgJ4aft2lYu-341">
          <mxGeometry width="120" height="42" as="geometry">
            <mxRectangle width="120" height="42" as="alternateBounds" />
          </mxGeometry>
        </mxCell>
        <mxCell id="76_u4km6NrgJ4aft2lYu-343" value="INT" style="shape=partialRectangle;html=1;whiteSpace=wrap;connectable=0;strokeColor=inherit;overflow=hidden;fillColor=none;top=0;left=0;bottom=0;right=0;pointerEvents=1;" vertex="1" parent="76_u4km6NrgJ4aft2lYu-341">
          <mxGeometry x="120" width="120" height="42" as="geometry">
            <mxRectangle width="120" height="42" as="alternateBounds" />
          </mxGeometry>
        </mxCell>
        <mxCell id="76_u4km6NrgJ4aft2lYu-344" value="INT" style="shape=partialRectangle;html=1;whiteSpace=wrap;connectable=0;strokeColor=inherit;overflow=hidden;fillColor=none;top=0;left=0;bottom=0;right=0;pointerEvents=1;" vertex="1" parent="76_u4km6NrgJ4aft2lYu-341">
          <mxGeometry x="240" width="120" height="42" as="geometry">
            <mxRectangle width="120" height="42" as="alternateBounds" />
          </mxGeometry>
        </mxCell>
        <mxCell id="76_u4km6NrgJ4aft2lYu-345" value="" style="shape=tableRow;horizontal=0;startSize=0;swimlaneHead=0;swimlaneBody=0;strokeColor=inherit;top=0;left=0;bottom=0;right=0;collapsible=0;dropTarget=0;fillColor=none;points=[[0,0.5],[1,0.5]];portConstraint=eastwest;" vertex="1" parent="76_u4km6NrgJ4aft2lYu-320">
          <mxGeometry y="249" width="360" height="41" as="geometry" />
        </mxCell>
        <mxCell id="76_u4km6NrgJ4aft2lYu-346" value="Max Length" style="shape=partialRectangle;html=1;whiteSpace=wrap;connectable=0;strokeColor=inherit;overflow=hidden;fillColor=none;top=0;left=0;bottom=0;right=0;pointerEvents=1;fontStyle=1" vertex="1" parent="76_u4km6NrgJ4aft2lYu-345">
          <mxGeometry width="120" height="41" as="geometry">
            <mxRectangle width="120" height="41" as="alternateBounds" />
          </mxGeometry>
        </mxCell>
        <mxCell id="76_u4km6NrgJ4aft2lYu-347" value="" style="shape=partialRectangle;html=1;whiteSpace=wrap;connectable=0;strokeColor=inherit;overflow=hidden;fillColor=none;top=0;left=0;bottom=0;right=0;pointerEvents=1;" vertex="1" parent="76_u4km6NrgJ4aft2lYu-345">
          <mxGeometry x="120" width="120" height="41" as="geometry">
            <mxRectangle width="120" height="41" as="alternateBounds" />
          </mxGeometry>
        </mxCell>
        <mxCell id="76_u4km6NrgJ4aft2lYu-348" value="" style="shape=partialRectangle;html=1;whiteSpace=wrap;connectable=0;strokeColor=inherit;overflow=hidden;fillColor=none;top=0;left=0;bottom=0;right=0;pointerEvents=1;" vertex="1" parent="76_u4km6NrgJ4aft2lYu-345">
          <mxGeometry x="240" width="120" height="41" as="geometry">
            <mxRectangle width="120" height="41" as="alternateBounds" />
          </mxGeometry>
        </mxCell>
        <mxCell id="76_u4km6NrgJ4aft2lYu-349" value="&lt;b&gt;&lt;font style=&quot;font-size: 14px;&quot;&gt;Author_Book&lt;/font&gt;&lt;/b&gt;" style="text;html=1;align=center;verticalAlign=middle;resizable=0;points=[];autosize=1;strokeColor=none;fillColor=none;" vertex="1" parent="1">
          <mxGeometry x="475" y="1330" width="110" height="30" as="geometry" />
        </mxCell>
        <mxCell id="76_u4km6NrgJ4aft2lYu-350" value="Publishing Company" style="text;html=1;align=center;verticalAlign=middle;resizable=0;points=[];autosize=1;strokeColor=none;fillColor=none;fontStyle=1;fontSize=14;" vertex="1" parent="1">
          <mxGeometry x="35" y="1690" width="160" height="30" as="geometry" />
        </mxCell>
        <mxCell id="76_u4km6NrgJ4aft2lYu-352" value="" style="shape=table;startSize=0;container=1;collapsible=0;childLayout=tableLayout;" vertex="1" parent="1">
          <mxGeometry x="40" y="1720" width="450" height="290" as="geometry" />
        </mxCell>
        <mxCell id="76_u4km6NrgJ4aft2lYu-353" value="" style="shape=tableRow;horizontal=0;startSize=0;swimlaneHead=0;swimlaneBody=0;strokeColor=inherit;top=0;left=0;bottom=0;right=0;collapsible=0;dropTarget=0;fillColor=none;points=[[0,0.5],[1,0.5]];portConstraint=eastwest;" vertex="1" parent="76_u4km6NrgJ4aft2lYu-352">
          <mxGeometry width="450" height="41" as="geometry" />
        </mxCell>
        <mxCell id="76_u4km6NrgJ4aft2lYu-354" value="Column Name" style="shape=partialRectangle;html=1;whiteSpace=wrap;connectable=0;strokeColor=inherit;overflow=hidden;fillColor=none;top=0;left=0;bottom=0;right=0;pointerEvents=1;fontStyle=1" vertex="1" parent="76_u4km6NrgJ4aft2lYu-353">
          <mxGeometry width="90" height="41" as="geometry">
            <mxRectangle width="90" height="41" as="alternateBounds" />
          </mxGeometry>
        </mxCell>
        <mxCell id="76_u4km6NrgJ4aft2lYu-355" value="Company_ID" style="shape=partialRectangle;html=1;whiteSpace=wrap;connectable=0;strokeColor=inherit;overflow=hidden;fillColor=none;top=0;left=0;bottom=0;right=0;pointerEvents=1;fontStyle=4" vertex="1" parent="76_u4km6NrgJ4aft2lYu-353">
          <mxGeometry x="90" width="90" height="41" as="geometry">
            <mxRectangle width="90" height="41" as="alternateBounds" />
          </mxGeometry>
        </mxCell>
        <mxCell id="76_u4km6NrgJ4aft2lYu-356" value="Company_name" style="shape=partialRectangle;html=1;whiteSpace=wrap;connectable=0;strokeColor=inherit;overflow=hidden;fillColor=none;top=0;left=0;bottom=0;right=0;pointerEvents=1;" vertex="1" parent="76_u4km6NrgJ4aft2lYu-353">
          <mxGeometry x="180" width="90" height="41" as="geometry">
            <mxRectangle width="90" height="41" as="alternateBounds" />
          </mxGeometry>
        </mxCell>
        <mxCell id="76_u4km6NrgJ4aft2lYu-411" value="Address" style="shape=partialRectangle;html=1;whiteSpace=wrap;connectable=0;strokeColor=inherit;overflow=hidden;fillColor=none;top=0;left=0;bottom=0;right=0;pointerEvents=1;" vertex="1" parent="76_u4km6NrgJ4aft2lYu-353">
          <mxGeometry x="270" width="90" height="41" as="geometry">
            <mxRectangle width="90" height="41" as="alternateBounds" />
          </mxGeometry>
        </mxCell>
        <mxCell id="76_u4km6NrgJ4aft2lYu-425" value="Quantity" style="shape=partialRectangle;html=1;whiteSpace=wrap;connectable=0;strokeColor=inherit;overflow=hidden;fillColor=none;top=0;left=0;bottom=0;right=0;pointerEvents=1;" vertex="1" parent="76_u4km6NrgJ4aft2lYu-353">
          <mxGeometry x="360" width="90" height="41" as="geometry">
            <mxRectangle width="90" height="41" as="alternateBounds" />
          </mxGeometry>
        </mxCell>
        <mxCell id="76_u4km6NrgJ4aft2lYu-357" value="" style="shape=tableRow;horizontal=0;startSize=0;swimlaneHead=0;swimlaneBody=0;strokeColor=inherit;top=0;left=0;bottom=0;right=0;collapsible=0;dropTarget=0;fillColor=none;points=[[0,0.5],[1,0.5]];portConstraint=eastwest;" vertex="1" parent="76_u4km6NrgJ4aft2lYu-352">
          <mxGeometry y="41" width="450" height="42" as="geometry" />
        </mxCell>
        <mxCell id="76_u4km6NrgJ4aft2lYu-358" value="Key Type" style="shape=partialRectangle;html=1;whiteSpace=wrap;connectable=0;strokeColor=inherit;overflow=hidden;fillColor=none;top=0;left=0;bottom=0;right=0;pointerEvents=1;fontStyle=1" vertex="1" parent="76_u4km6NrgJ4aft2lYu-357">
          <mxGeometry width="90" height="42" as="geometry">
            <mxRectangle width="90" height="42" as="alternateBounds" />
          </mxGeometry>
        </mxCell>
        <mxCell id="76_u4km6NrgJ4aft2lYu-359" value="PK" style="shape=partialRectangle;html=1;whiteSpace=wrap;connectable=0;strokeColor=inherit;overflow=hidden;fillColor=none;top=0;left=0;bottom=0;right=0;pointerEvents=1;" vertex="1" parent="76_u4km6NrgJ4aft2lYu-357">
          <mxGeometry x="90" width="90" height="42" as="geometry">
            <mxRectangle width="90" height="42" as="alternateBounds" />
          </mxGeometry>
        </mxCell>
        <mxCell id="76_u4km6NrgJ4aft2lYu-360" value="" style="shape=partialRectangle;html=1;whiteSpace=wrap;connectable=0;strokeColor=inherit;overflow=hidden;fillColor=none;top=0;left=0;bottom=0;right=0;pointerEvents=1;" vertex="1" parent="76_u4km6NrgJ4aft2lYu-357">
          <mxGeometry x="180" width="90" height="42" as="geometry">
            <mxRectangle width="90" height="42" as="alternateBounds" />
          </mxGeometry>
        </mxCell>
        <mxCell id="76_u4km6NrgJ4aft2lYu-412" style="shape=partialRectangle;html=1;whiteSpace=wrap;connectable=0;strokeColor=inherit;overflow=hidden;fillColor=none;top=0;left=0;bottom=0;right=0;pointerEvents=1;" vertex="1" parent="76_u4km6NrgJ4aft2lYu-357">
          <mxGeometry x="270" width="90" height="42" as="geometry">
            <mxRectangle width="90" height="42" as="alternateBounds" />
          </mxGeometry>
        </mxCell>
        <mxCell id="76_u4km6NrgJ4aft2lYu-426" style="shape=partialRectangle;html=1;whiteSpace=wrap;connectable=0;strokeColor=inherit;overflow=hidden;fillColor=none;top=0;left=0;bottom=0;right=0;pointerEvents=1;" vertex="1" parent="76_u4km6NrgJ4aft2lYu-357">
          <mxGeometry x="360" width="90" height="42" as="geometry">
            <mxRectangle width="90" height="42" as="alternateBounds" />
          </mxGeometry>
        </mxCell>
        <mxCell id="76_u4km6NrgJ4aft2lYu-361" value="" style="shape=tableRow;horizontal=0;startSize=0;swimlaneHead=0;swimlaneBody=0;strokeColor=inherit;top=0;left=0;bottom=0;right=0;collapsible=0;dropTarget=0;fillColor=none;points=[[0,0.5],[1,0.5]];portConstraint=eastwest;" vertex="1" parent="76_u4km6NrgJ4aft2lYu-352">
          <mxGeometry y="83" width="450" height="41" as="geometry" />
        </mxCell>
        <mxCell id="76_u4km6NrgJ4aft2lYu-362" value="Null/Unique" style="shape=partialRectangle;html=1;whiteSpace=wrap;connectable=0;strokeColor=inherit;overflow=hidden;fillColor=none;top=0;left=0;bottom=0;right=0;pointerEvents=1;fontStyle=1" vertex="1" parent="76_u4km6NrgJ4aft2lYu-361">
          <mxGeometry width="90" height="41" as="geometry">
            <mxRectangle width="90" height="41" as="alternateBounds" />
          </mxGeometry>
        </mxCell>
        <mxCell id="76_u4km6NrgJ4aft2lYu-363" value="NN, U" style="shape=partialRectangle;html=1;whiteSpace=wrap;connectable=0;strokeColor=inherit;overflow=hidden;fillColor=none;top=0;left=0;bottom=0;right=0;pointerEvents=1;" vertex="1" parent="76_u4km6NrgJ4aft2lYu-361">
          <mxGeometry x="90" width="90" height="41" as="geometry">
            <mxRectangle width="90" height="41" as="alternateBounds" />
          </mxGeometry>
        </mxCell>
        <mxCell id="76_u4km6NrgJ4aft2lYu-364" value="NN" style="shape=partialRectangle;html=1;whiteSpace=wrap;connectable=0;strokeColor=inherit;overflow=hidden;fillColor=none;top=0;left=0;bottom=0;right=0;pointerEvents=1;" vertex="1" parent="76_u4km6NrgJ4aft2lYu-361">
          <mxGeometry x="180" width="90" height="41" as="geometry">
            <mxRectangle width="90" height="41" as="alternateBounds" />
          </mxGeometry>
        </mxCell>
        <mxCell id="76_u4km6NrgJ4aft2lYu-413" value="NN" style="shape=partialRectangle;html=1;whiteSpace=wrap;connectable=0;strokeColor=inherit;overflow=hidden;fillColor=none;top=0;left=0;bottom=0;right=0;pointerEvents=1;" vertex="1" parent="76_u4km6NrgJ4aft2lYu-361">
          <mxGeometry x="270" width="90" height="41" as="geometry">
            <mxRectangle width="90" height="41" as="alternateBounds" />
          </mxGeometry>
        </mxCell>
        <mxCell id="76_u4km6NrgJ4aft2lYu-427" value="NN" style="shape=partialRectangle;html=1;whiteSpace=wrap;connectable=0;strokeColor=inherit;overflow=hidden;fillColor=none;top=0;left=0;bottom=0;right=0;pointerEvents=1;" vertex="1" parent="76_u4km6NrgJ4aft2lYu-361">
          <mxGeometry x="360" width="90" height="41" as="geometry">
            <mxRectangle width="90" height="41" as="alternateBounds" />
          </mxGeometry>
        </mxCell>
        <mxCell id="76_u4km6NrgJ4aft2lYu-365" value="" style="shape=tableRow;horizontal=0;startSize=0;swimlaneHead=0;swimlaneBody=0;strokeColor=inherit;top=0;left=0;bottom=0;right=0;collapsible=0;dropTarget=0;fillColor=none;points=[[0,0.5],[1,0.5]];portConstraint=eastwest;" vertex="1" parent="76_u4km6NrgJ4aft2lYu-352">
          <mxGeometry y="124" width="450" height="42" as="geometry" />
        </mxCell>
        <mxCell id="76_u4km6NrgJ4aft2lYu-366" value="FK Table" style="shape=partialRectangle;html=1;whiteSpace=wrap;connectable=0;strokeColor=inherit;overflow=hidden;fillColor=none;top=0;left=0;bottom=0;right=0;pointerEvents=1;fontStyle=1" vertex="1" parent="76_u4km6NrgJ4aft2lYu-365">
          <mxGeometry width="90" height="42" as="geometry">
            <mxRectangle width="90" height="42" as="alternateBounds" />
          </mxGeometry>
        </mxCell>
        <mxCell id="76_u4km6NrgJ4aft2lYu-367" value="" style="shape=partialRectangle;html=1;whiteSpace=wrap;connectable=0;strokeColor=inherit;overflow=hidden;fillColor=none;top=0;left=0;bottom=0;right=0;pointerEvents=1;" vertex="1" parent="76_u4km6NrgJ4aft2lYu-365">
          <mxGeometry x="90" width="90" height="42" as="geometry">
            <mxRectangle width="90" height="42" as="alternateBounds" />
          </mxGeometry>
        </mxCell>
        <mxCell id="76_u4km6NrgJ4aft2lYu-368" value="" style="shape=partialRectangle;html=1;whiteSpace=wrap;connectable=0;strokeColor=inherit;overflow=hidden;fillColor=none;top=0;left=0;bottom=0;right=0;pointerEvents=1;" vertex="1" parent="76_u4km6NrgJ4aft2lYu-365">
          <mxGeometry x="180" width="90" height="42" as="geometry">
            <mxRectangle width="90" height="42" as="alternateBounds" />
          </mxGeometry>
        </mxCell>
        <mxCell id="76_u4km6NrgJ4aft2lYu-414" style="shape=partialRectangle;html=1;whiteSpace=wrap;connectable=0;strokeColor=inherit;overflow=hidden;fillColor=none;top=0;left=0;bottom=0;right=0;pointerEvents=1;" vertex="1" parent="76_u4km6NrgJ4aft2lYu-365">
          <mxGeometry x="270" width="90" height="42" as="geometry">
            <mxRectangle width="90" height="42" as="alternateBounds" />
          </mxGeometry>
        </mxCell>
        <mxCell id="76_u4km6NrgJ4aft2lYu-428" style="shape=partialRectangle;html=1;whiteSpace=wrap;connectable=0;strokeColor=inherit;overflow=hidden;fillColor=none;top=0;left=0;bottom=0;right=0;pointerEvents=1;" vertex="1" parent="76_u4km6NrgJ4aft2lYu-365">
          <mxGeometry x="360" width="90" height="42" as="geometry">
            <mxRectangle width="90" height="42" as="alternateBounds" />
          </mxGeometry>
        </mxCell>
        <mxCell id="76_u4km6NrgJ4aft2lYu-369" value="" style="shape=tableRow;horizontal=0;startSize=0;swimlaneHead=0;swimlaneBody=0;strokeColor=inherit;top=0;left=0;bottom=0;right=0;collapsible=0;dropTarget=0;fillColor=none;points=[[0,0.5],[1,0.5]];portConstraint=eastwest;" vertex="1" parent="76_u4km6NrgJ4aft2lYu-352">
          <mxGeometry y="166" width="450" height="41" as="geometry" />
        </mxCell>
        <mxCell id="76_u4km6NrgJ4aft2lYu-370" value="FK Column" style="shape=partialRectangle;html=1;whiteSpace=wrap;connectable=0;strokeColor=inherit;overflow=hidden;fillColor=none;top=0;left=0;bottom=0;right=0;pointerEvents=1;fontStyle=1" vertex="1" parent="76_u4km6NrgJ4aft2lYu-369">
          <mxGeometry width="90" height="41" as="geometry">
            <mxRectangle width="90" height="41" as="alternateBounds" />
          </mxGeometry>
        </mxCell>
        <mxCell id="76_u4km6NrgJ4aft2lYu-371" value="" style="shape=partialRectangle;html=1;whiteSpace=wrap;connectable=0;strokeColor=inherit;overflow=hidden;fillColor=none;top=0;left=0;bottom=0;right=0;pointerEvents=1;" vertex="1" parent="76_u4km6NrgJ4aft2lYu-369">
          <mxGeometry x="90" width="90" height="41" as="geometry">
            <mxRectangle width="90" height="41" as="alternateBounds" />
          </mxGeometry>
        </mxCell>
        <mxCell id="76_u4km6NrgJ4aft2lYu-372" value="" style="shape=partialRectangle;html=1;whiteSpace=wrap;connectable=0;strokeColor=inherit;overflow=hidden;fillColor=none;top=0;left=0;bottom=0;right=0;pointerEvents=1;" vertex="1" parent="76_u4km6NrgJ4aft2lYu-369">
          <mxGeometry x="180" width="90" height="41" as="geometry">
            <mxRectangle width="90" height="41" as="alternateBounds" />
          </mxGeometry>
        </mxCell>
        <mxCell id="76_u4km6NrgJ4aft2lYu-415" style="shape=partialRectangle;html=1;whiteSpace=wrap;connectable=0;strokeColor=inherit;overflow=hidden;fillColor=none;top=0;left=0;bottom=0;right=0;pointerEvents=1;" vertex="1" parent="76_u4km6NrgJ4aft2lYu-369">
          <mxGeometry x="270" width="90" height="41" as="geometry">
            <mxRectangle width="90" height="41" as="alternateBounds" />
          </mxGeometry>
        </mxCell>
        <mxCell id="76_u4km6NrgJ4aft2lYu-429" style="shape=partialRectangle;html=1;whiteSpace=wrap;connectable=0;strokeColor=inherit;overflow=hidden;fillColor=none;top=0;left=0;bottom=0;right=0;pointerEvents=1;" vertex="1" parent="76_u4km6NrgJ4aft2lYu-369">
          <mxGeometry x="360" width="90" height="41" as="geometry">
            <mxRectangle width="90" height="41" as="alternateBounds" />
          </mxGeometry>
        </mxCell>
        <mxCell id="76_u4km6NrgJ4aft2lYu-373" value="" style="shape=tableRow;horizontal=0;startSize=0;swimlaneHead=0;swimlaneBody=0;strokeColor=inherit;top=0;left=0;bottom=0;right=0;collapsible=0;dropTarget=0;fillColor=none;points=[[0,0.5],[1,0.5]];portConstraint=eastwest;" vertex="1" parent="76_u4km6NrgJ4aft2lYu-352">
          <mxGeometry y="207" width="450" height="42" as="geometry" />
        </mxCell>
        <mxCell id="76_u4km6NrgJ4aft2lYu-374" value="Datatype" style="shape=partialRectangle;html=1;whiteSpace=wrap;connectable=0;strokeColor=inherit;overflow=hidden;fillColor=none;top=0;left=0;bottom=0;right=0;pointerEvents=1;fontStyle=1" vertex="1" parent="76_u4km6NrgJ4aft2lYu-373">
          <mxGeometry width="90" height="42" as="geometry">
            <mxRectangle width="90" height="42" as="alternateBounds" />
          </mxGeometry>
        </mxCell>
        <mxCell id="76_u4km6NrgJ4aft2lYu-375" value="INT" style="shape=partialRectangle;html=1;whiteSpace=wrap;connectable=0;strokeColor=inherit;overflow=hidden;fillColor=none;top=0;left=0;bottom=0;right=0;pointerEvents=1;" vertex="1" parent="76_u4km6NrgJ4aft2lYu-373">
          <mxGeometry x="90" width="90" height="42" as="geometry">
            <mxRectangle width="90" height="42" as="alternateBounds" />
          </mxGeometry>
        </mxCell>
        <mxCell id="76_u4km6NrgJ4aft2lYu-376" value="NVARCHAR" style="shape=partialRectangle;html=1;whiteSpace=wrap;connectable=0;strokeColor=inherit;overflow=hidden;fillColor=none;top=0;left=0;bottom=0;right=0;pointerEvents=1;" vertex="1" parent="76_u4km6NrgJ4aft2lYu-373">
          <mxGeometry x="180" width="90" height="42" as="geometry">
            <mxRectangle width="90" height="42" as="alternateBounds" />
          </mxGeometry>
        </mxCell>
        <mxCell id="76_u4km6NrgJ4aft2lYu-416" value="NVARCHAR" style="shape=partialRectangle;html=1;whiteSpace=wrap;connectable=0;strokeColor=inherit;overflow=hidden;fillColor=none;top=0;left=0;bottom=0;right=0;pointerEvents=1;" vertex="1" parent="76_u4km6NrgJ4aft2lYu-373">
          <mxGeometry x="270" width="90" height="42" as="geometry">
            <mxRectangle width="90" height="42" as="alternateBounds" />
          </mxGeometry>
        </mxCell>
        <mxCell id="76_u4km6NrgJ4aft2lYu-430" value="INT" style="shape=partialRectangle;html=1;whiteSpace=wrap;connectable=0;strokeColor=inherit;overflow=hidden;fillColor=none;top=0;left=0;bottom=0;right=0;pointerEvents=1;" vertex="1" parent="76_u4km6NrgJ4aft2lYu-373">
          <mxGeometry x="360" width="90" height="42" as="geometry">
            <mxRectangle width="90" height="42" as="alternateBounds" />
          </mxGeometry>
        </mxCell>
        <mxCell id="76_u4km6NrgJ4aft2lYu-377" value="" style="shape=tableRow;horizontal=0;startSize=0;swimlaneHead=0;swimlaneBody=0;strokeColor=inherit;top=0;left=0;bottom=0;right=0;collapsible=0;dropTarget=0;fillColor=none;points=[[0,0.5],[1,0.5]];portConstraint=eastwest;" vertex="1" parent="76_u4km6NrgJ4aft2lYu-352">
          <mxGeometry y="249" width="450" height="41" as="geometry" />
        </mxCell>
        <mxCell id="76_u4km6NrgJ4aft2lYu-378" value="Max Length" style="shape=partialRectangle;html=1;whiteSpace=wrap;connectable=0;strokeColor=inherit;overflow=hidden;fillColor=none;top=0;left=0;bottom=0;right=0;pointerEvents=1;fontStyle=1" vertex="1" parent="76_u4km6NrgJ4aft2lYu-377">
          <mxGeometry width="90" height="41" as="geometry">
            <mxRectangle width="90" height="41" as="alternateBounds" />
          </mxGeometry>
        </mxCell>
        <mxCell id="76_u4km6NrgJ4aft2lYu-379" value="" style="shape=partialRectangle;html=1;whiteSpace=wrap;connectable=0;strokeColor=inherit;overflow=hidden;fillColor=none;top=0;left=0;bottom=0;right=0;pointerEvents=1;" vertex="1" parent="76_u4km6NrgJ4aft2lYu-377">
          <mxGeometry x="90" width="90" height="41" as="geometry">
            <mxRectangle width="90" height="41" as="alternateBounds" />
          </mxGeometry>
        </mxCell>
        <mxCell id="76_u4km6NrgJ4aft2lYu-380" value="50" style="shape=partialRectangle;html=1;whiteSpace=wrap;connectable=0;strokeColor=inherit;overflow=hidden;fillColor=none;top=0;left=0;bottom=0;right=0;pointerEvents=1;" vertex="1" parent="76_u4km6NrgJ4aft2lYu-377">
          <mxGeometry x="180" width="90" height="41" as="geometry">
            <mxRectangle width="90" height="41" as="alternateBounds" />
          </mxGeometry>
        </mxCell>
        <mxCell id="76_u4km6NrgJ4aft2lYu-417" value="255" style="shape=partialRectangle;html=1;whiteSpace=wrap;connectable=0;strokeColor=inherit;overflow=hidden;fillColor=none;top=0;left=0;bottom=0;right=0;pointerEvents=1;" vertex="1" parent="76_u4km6NrgJ4aft2lYu-377">
          <mxGeometry x="270" width="90" height="41" as="geometry">
            <mxRectangle width="90" height="41" as="alternateBounds" />
          </mxGeometry>
        </mxCell>
        <mxCell id="76_u4km6NrgJ4aft2lYu-431" style="shape=partialRectangle;html=1;whiteSpace=wrap;connectable=0;strokeColor=inherit;overflow=hidden;fillColor=none;top=0;left=0;bottom=0;right=0;pointerEvents=1;" vertex="1" parent="76_u4km6NrgJ4aft2lYu-377">
          <mxGeometry x="360" width="90" height="41" as="geometry">
            <mxRectangle width="90" height="41" as="alternateBounds" />
          </mxGeometry>
        </mxCell>
        <mxCell id="76_u4km6NrgJ4aft2lYu-381" value="" style="shape=table;startSize=0;container=1;collapsible=0;childLayout=tableLayout;" vertex="1" parent="1">
          <mxGeometry x="520" y="1720" width="320" height="290" as="geometry" />
        </mxCell>
        <mxCell id="76_u4km6NrgJ4aft2lYu-382" value="" style="shape=tableRow;horizontal=0;startSize=0;swimlaneHead=0;swimlaneBody=0;strokeColor=inherit;top=0;left=0;bottom=0;right=0;collapsible=0;dropTarget=0;fillColor=none;points=[[0,0.5],[1,0.5]];portConstraint=eastwest;" vertex="1" parent="76_u4km6NrgJ4aft2lYu-381">
          <mxGeometry width="320" height="41" as="geometry" />
        </mxCell>
        <mxCell id="76_u4km6NrgJ4aft2lYu-383" value="Column Name" style="shape=partialRectangle;html=1;whiteSpace=wrap;connectable=0;strokeColor=inherit;overflow=hidden;fillColor=none;top=0;left=0;bottom=0;right=0;pointerEvents=1;fontStyle=1" vertex="1" parent="76_u4km6NrgJ4aft2lYu-382">
          <mxGeometry width="107" height="41" as="geometry">
            <mxRectangle width="107" height="41" as="alternateBounds" />
          </mxGeometry>
        </mxCell>
        <mxCell id="76_u4km6NrgJ4aft2lYu-384" value="Catalogi_ID" style="shape=partialRectangle;html=1;whiteSpace=wrap;connectable=0;strokeColor=inherit;overflow=hidden;fillColor=none;top=0;left=0;bottom=0;right=0;pointerEvents=1;fontStyle=4" vertex="1" parent="76_u4km6NrgJ4aft2lYu-382">
          <mxGeometry x="107" width="117" height="41" as="geometry">
            <mxRectangle width="117" height="41" as="alternateBounds" />
          </mxGeometry>
        </mxCell>
        <mxCell id="76_u4km6NrgJ4aft2lYu-385" value="Catalogi_name" style="shape=partialRectangle;html=1;whiteSpace=wrap;connectable=0;strokeColor=inherit;overflow=hidden;fillColor=none;top=0;left=0;bottom=0;right=0;pointerEvents=1;" vertex="1" parent="76_u4km6NrgJ4aft2lYu-382">
          <mxGeometry x="224" width="96" height="41" as="geometry">
            <mxRectangle width="96" height="41" as="alternateBounds" />
          </mxGeometry>
        </mxCell>
        <mxCell id="76_u4km6NrgJ4aft2lYu-386" value="" style="shape=tableRow;horizontal=0;startSize=0;swimlaneHead=0;swimlaneBody=0;strokeColor=inherit;top=0;left=0;bottom=0;right=0;collapsible=0;dropTarget=0;fillColor=none;points=[[0,0.5],[1,0.5]];portConstraint=eastwest;" vertex="1" parent="76_u4km6NrgJ4aft2lYu-381">
          <mxGeometry y="41" width="320" height="42" as="geometry" />
        </mxCell>
        <mxCell id="76_u4km6NrgJ4aft2lYu-387" value="Key Type" style="shape=partialRectangle;html=1;whiteSpace=wrap;connectable=0;strokeColor=inherit;overflow=hidden;fillColor=none;top=0;left=0;bottom=0;right=0;pointerEvents=1;fontStyle=1" vertex="1" parent="76_u4km6NrgJ4aft2lYu-386">
          <mxGeometry width="107" height="42" as="geometry">
            <mxRectangle width="107" height="42" as="alternateBounds" />
          </mxGeometry>
        </mxCell>
        <mxCell id="76_u4km6NrgJ4aft2lYu-388" value="PK" style="shape=partialRectangle;html=1;whiteSpace=wrap;connectable=0;strokeColor=inherit;overflow=hidden;fillColor=none;top=0;left=0;bottom=0;right=0;pointerEvents=1;" vertex="1" parent="76_u4km6NrgJ4aft2lYu-386">
          <mxGeometry x="107" width="117" height="42" as="geometry">
            <mxRectangle width="117" height="42" as="alternateBounds" />
          </mxGeometry>
        </mxCell>
        <mxCell id="76_u4km6NrgJ4aft2lYu-389" value="" style="shape=partialRectangle;html=1;whiteSpace=wrap;connectable=0;strokeColor=inherit;overflow=hidden;fillColor=none;top=0;left=0;bottom=0;right=0;pointerEvents=1;" vertex="1" parent="76_u4km6NrgJ4aft2lYu-386">
          <mxGeometry x="224" width="96" height="42" as="geometry">
            <mxRectangle width="96" height="42" as="alternateBounds" />
          </mxGeometry>
        </mxCell>
        <mxCell id="76_u4km6NrgJ4aft2lYu-390" value="" style="shape=tableRow;horizontal=0;startSize=0;swimlaneHead=0;swimlaneBody=0;strokeColor=inherit;top=0;left=0;bottom=0;right=0;collapsible=0;dropTarget=0;fillColor=none;points=[[0,0.5],[1,0.5]];portConstraint=eastwest;" vertex="1" parent="76_u4km6NrgJ4aft2lYu-381">
          <mxGeometry y="83" width="320" height="41" as="geometry" />
        </mxCell>
        <mxCell id="76_u4km6NrgJ4aft2lYu-391" value="Null/Unique" style="shape=partialRectangle;html=1;whiteSpace=wrap;connectable=0;strokeColor=inherit;overflow=hidden;fillColor=none;top=0;left=0;bottom=0;right=0;pointerEvents=1;fontStyle=1" vertex="1" parent="76_u4km6NrgJ4aft2lYu-390">
          <mxGeometry width="107" height="41" as="geometry">
            <mxRectangle width="107" height="41" as="alternateBounds" />
          </mxGeometry>
        </mxCell>
        <mxCell id="76_u4km6NrgJ4aft2lYu-392" value="NN, U" style="shape=partialRectangle;html=1;whiteSpace=wrap;connectable=0;strokeColor=inherit;overflow=hidden;fillColor=none;top=0;left=0;bottom=0;right=0;pointerEvents=1;" vertex="1" parent="76_u4km6NrgJ4aft2lYu-390">
          <mxGeometry x="107" width="117" height="41" as="geometry">
            <mxRectangle width="117" height="41" as="alternateBounds" />
          </mxGeometry>
        </mxCell>
        <mxCell id="76_u4km6NrgJ4aft2lYu-393" value="NN" style="shape=partialRectangle;html=1;whiteSpace=wrap;connectable=0;strokeColor=inherit;overflow=hidden;fillColor=none;top=0;left=0;bottom=0;right=0;pointerEvents=1;" vertex="1" parent="76_u4km6NrgJ4aft2lYu-390">
          <mxGeometry x="224" width="96" height="41" as="geometry">
            <mxRectangle width="96" height="41" as="alternateBounds" />
          </mxGeometry>
        </mxCell>
        <mxCell id="76_u4km6NrgJ4aft2lYu-394" value="" style="shape=tableRow;horizontal=0;startSize=0;swimlaneHead=0;swimlaneBody=0;strokeColor=inherit;top=0;left=0;bottom=0;right=0;collapsible=0;dropTarget=0;fillColor=none;points=[[0,0.5],[1,0.5]];portConstraint=eastwest;" vertex="1" parent="76_u4km6NrgJ4aft2lYu-381">
          <mxGeometry y="124" width="320" height="42" as="geometry" />
        </mxCell>
        <mxCell id="76_u4km6NrgJ4aft2lYu-395" value="FK Table" style="shape=partialRectangle;html=1;whiteSpace=wrap;connectable=0;strokeColor=inherit;overflow=hidden;fillColor=none;top=0;left=0;bottom=0;right=0;pointerEvents=1;fontStyle=1" vertex="1" parent="76_u4km6NrgJ4aft2lYu-394">
          <mxGeometry width="107" height="42" as="geometry">
            <mxRectangle width="107" height="42" as="alternateBounds" />
          </mxGeometry>
        </mxCell>
        <mxCell id="76_u4km6NrgJ4aft2lYu-396" value="" style="shape=partialRectangle;html=1;whiteSpace=wrap;connectable=0;strokeColor=inherit;overflow=hidden;fillColor=none;top=0;left=0;bottom=0;right=0;pointerEvents=1;" vertex="1" parent="76_u4km6NrgJ4aft2lYu-394">
          <mxGeometry x="107" width="117" height="42" as="geometry">
            <mxRectangle width="117" height="42" as="alternateBounds" />
          </mxGeometry>
        </mxCell>
        <mxCell id="76_u4km6NrgJ4aft2lYu-397" value="" style="shape=partialRectangle;html=1;whiteSpace=wrap;connectable=0;strokeColor=inherit;overflow=hidden;fillColor=none;top=0;left=0;bottom=0;right=0;pointerEvents=1;" vertex="1" parent="76_u4km6NrgJ4aft2lYu-394">
          <mxGeometry x="224" width="96" height="42" as="geometry">
            <mxRectangle width="96" height="42" as="alternateBounds" />
          </mxGeometry>
        </mxCell>
        <mxCell id="76_u4km6NrgJ4aft2lYu-398" value="" style="shape=tableRow;horizontal=0;startSize=0;swimlaneHead=0;swimlaneBody=0;strokeColor=inherit;top=0;left=0;bottom=0;right=0;collapsible=0;dropTarget=0;fillColor=none;points=[[0,0.5],[1,0.5]];portConstraint=eastwest;" vertex="1" parent="76_u4km6NrgJ4aft2lYu-381">
          <mxGeometry y="166" width="320" height="41" as="geometry" />
        </mxCell>
        <mxCell id="76_u4km6NrgJ4aft2lYu-399" value="FK Column" style="shape=partialRectangle;html=1;whiteSpace=wrap;connectable=0;strokeColor=inherit;overflow=hidden;fillColor=none;top=0;left=0;bottom=0;right=0;pointerEvents=1;fontStyle=1" vertex="1" parent="76_u4km6NrgJ4aft2lYu-398">
          <mxGeometry width="107" height="41" as="geometry">
            <mxRectangle width="107" height="41" as="alternateBounds" />
          </mxGeometry>
        </mxCell>
        <mxCell id="76_u4km6NrgJ4aft2lYu-400" value="" style="shape=partialRectangle;html=1;whiteSpace=wrap;connectable=0;strokeColor=inherit;overflow=hidden;fillColor=none;top=0;left=0;bottom=0;right=0;pointerEvents=1;" vertex="1" parent="76_u4km6NrgJ4aft2lYu-398">
          <mxGeometry x="107" width="117" height="41" as="geometry">
            <mxRectangle width="117" height="41" as="alternateBounds" />
          </mxGeometry>
        </mxCell>
        <mxCell id="76_u4km6NrgJ4aft2lYu-401" value="" style="shape=partialRectangle;html=1;whiteSpace=wrap;connectable=0;strokeColor=inherit;overflow=hidden;fillColor=none;top=0;left=0;bottom=0;right=0;pointerEvents=1;" vertex="1" parent="76_u4km6NrgJ4aft2lYu-398">
          <mxGeometry x="224" width="96" height="41" as="geometry">
            <mxRectangle width="96" height="41" as="alternateBounds" />
          </mxGeometry>
        </mxCell>
        <mxCell id="76_u4km6NrgJ4aft2lYu-402" value="" style="shape=tableRow;horizontal=0;startSize=0;swimlaneHead=0;swimlaneBody=0;strokeColor=inherit;top=0;left=0;bottom=0;right=0;collapsible=0;dropTarget=0;fillColor=none;points=[[0,0.5],[1,0.5]];portConstraint=eastwest;" vertex="1" parent="76_u4km6NrgJ4aft2lYu-381">
          <mxGeometry y="207" width="320" height="42" as="geometry" />
        </mxCell>
        <mxCell id="76_u4km6NrgJ4aft2lYu-403" value="Datatype" style="shape=partialRectangle;html=1;whiteSpace=wrap;connectable=0;strokeColor=inherit;overflow=hidden;fillColor=none;top=0;left=0;bottom=0;right=0;pointerEvents=1;fontStyle=1" vertex="1" parent="76_u4km6NrgJ4aft2lYu-402">
          <mxGeometry width="107" height="42" as="geometry">
            <mxRectangle width="107" height="42" as="alternateBounds" />
          </mxGeometry>
        </mxCell>
        <mxCell id="76_u4km6NrgJ4aft2lYu-404" value="INT" style="shape=partialRectangle;html=1;whiteSpace=wrap;connectable=0;strokeColor=inherit;overflow=hidden;fillColor=none;top=0;left=0;bottom=0;right=0;pointerEvents=1;" vertex="1" parent="76_u4km6NrgJ4aft2lYu-402">
          <mxGeometry x="107" width="117" height="42" as="geometry">
            <mxRectangle width="117" height="42" as="alternateBounds" />
          </mxGeometry>
        </mxCell>
        <mxCell id="76_u4km6NrgJ4aft2lYu-405" value="NVARCHAR" style="shape=partialRectangle;html=1;whiteSpace=wrap;connectable=0;strokeColor=inherit;overflow=hidden;fillColor=none;top=0;left=0;bottom=0;right=0;pointerEvents=1;" vertex="1" parent="76_u4km6NrgJ4aft2lYu-402">
          <mxGeometry x="224" width="96" height="42" as="geometry">
            <mxRectangle width="96" height="42" as="alternateBounds" />
          </mxGeometry>
        </mxCell>
        <mxCell id="76_u4km6NrgJ4aft2lYu-406" value="" style="shape=tableRow;horizontal=0;startSize=0;swimlaneHead=0;swimlaneBody=0;strokeColor=inherit;top=0;left=0;bottom=0;right=0;collapsible=0;dropTarget=0;fillColor=none;points=[[0,0.5],[1,0.5]];portConstraint=eastwest;" vertex="1" parent="76_u4km6NrgJ4aft2lYu-381">
          <mxGeometry y="249" width="320" height="41" as="geometry" />
        </mxCell>
        <mxCell id="76_u4km6NrgJ4aft2lYu-407" value="Max Length" style="shape=partialRectangle;html=1;whiteSpace=wrap;connectable=0;strokeColor=inherit;overflow=hidden;fillColor=none;top=0;left=0;bottom=0;right=0;pointerEvents=1;fontStyle=1" vertex="1" parent="76_u4km6NrgJ4aft2lYu-406">
          <mxGeometry width="107" height="41" as="geometry">
            <mxRectangle width="107" height="41" as="alternateBounds" />
          </mxGeometry>
        </mxCell>
        <mxCell id="76_u4km6NrgJ4aft2lYu-408" value="" style="shape=partialRectangle;html=1;whiteSpace=wrap;connectable=0;strokeColor=inherit;overflow=hidden;fillColor=none;top=0;left=0;bottom=0;right=0;pointerEvents=1;" vertex="1" parent="76_u4km6NrgJ4aft2lYu-406">
          <mxGeometry x="107" width="117" height="41" as="geometry">
            <mxRectangle width="117" height="41" as="alternateBounds" />
          </mxGeometry>
        </mxCell>
        <mxCell id="76_u4km6NrgJ4aft2lYu-409" value="50" style="shape=partialRectangle;html=1;whiteSpace=wrap;connectable=0;strokeColor=inherit;overflow=hidden;fillColor=none;top=0;left=0;bottom=0;right=0;pointerEvents=1;" vertex="1" parent="76_u4km6NrgJ4aft2lYu-406">
          <mxGeometry x="224" width="96" height="41" as="geometry">
            <mxRectangle width="96" height="41" as="alternateBounds" />
          </mxGeometry>
        </mxCell>
        <mxCell id="76_u4km6NrgJ4aft2lYu-410" value="&lt;b&gt;&lt;font style=&quot;font-size: 14px;&quot;&gt;Catalogies&lt;/font&gt;&lt;/b&gt;" style="text;html=1;align=center;verticalAlign=middle;resizable=0;points=[];autosize=1;strokeColor=none;fillColor=none;" vertex="1" parent="1">
          <mxGeometry x="511.25" y="1690" width="90" height="30" as="geometry" />
        </mxCell>
        <mxCell id="76_u4km6NrgJ4aft2lYu-433" value="Catalogi_ID*" style="ellipse;whiteSpace=wrap;html=1;" vertex="1" parent="1">
          <mxGeometry x="30" y="20" width="110" height="50" as="geometry" />
        </mxCell>
        <mxCell id="76_u4km6NrgJ4aft2lYu-434" value="" style="endArrow=none;html=1;rounded=0;entryX=0.1;entryY=0.004;entryDx=0;entryDy=0;exitX=1;exitY=1;exitDx=0;exitDy=0;entryPerimeter=0;" edge="1" parent="1" source="76_u4km6NrgJ4aft2lYu-433" target="76_u4km6NrgJ4aft2lYu-1">
          <mxGeometry width="50" height="50" relative="1" as="geometry">
            <mxPoint x="195" y="60" as="sourcePoint" />
            <mxPoint x="415" y="200" as="targetPoint" />
          </mxGeometry>
        </mxCell>
      </root>
    </mxGraphModel>
  </diagram>
</mxfile>
